<mxfile host="Electron" agent="Mozilla/5.0 (Windows NT 10.0; Win64; x64) AppleWebKit/537.36 (KHTML, like Gecko) draw.io/24.7.8 Chrome/128.0.6613.36 Electron/32.0.1 Safari/537.36" version="24.7.8">
  <diagram id="6a731a19-8d31-9384-78a2-239565b7b9f0" name="Page-1">
    <mxGraphModel dx="7136" dy="4324" grid="1" gridSize="10" guides="1" tooltips="1" connect="1" arrows="1" fold="1" page="0" pageScale="1" pageWidth="1169" pageHeight="827" background="none" math="0" shadow="1">
      <root>
        <mxCell id="0" />
        <mxCell id="1" parent="0" />
        <mxCell id="1745" value="" style="edgeStyle=none;rounded=1;jumpStyle=none;html=1;shadow=0;labelBackgroundColor=none;startArrow=none;startFill=0;endArrow=classic;endFill=1;jettySize=auto;orthogonalLoop=1;strokeColor=#2F5B7C;strokeWidth=3;fontFamily=Helvetica;fontSize=16;fontColor=#23445D;spacing=5;" parent="1" source="1749" target="1764" edge="1">
          <mxGeometry relative="1" as="geometry" />
        </mxCell>
        <mxCell id="1746" value="" style="edgeStyle=none;rounded=1;jumpStyle=none;html=1;shadow=0;labelBackgroundColor=none;startArrow=none;startFill=0;endArrow=classic;endFill=1;jettySize=auto;orthogonalLoop=1;strokeColor=#2F5B7C;strokeWidth=3;fontFamily=Helvetica;fontSize=16;fontColor=#23445D;spacing=5;" parent="1" source="1749" target="1771" edge="1">
          <mxGeometry relative="1" as="geometry" />
        </mxCell>
        <mxCell id="1747" value="" style="edgeStyle=none;rounded=1;jumpStyle=none;html=1;shadow=0;labelBackgroundColor=none;startArrow=none;startFill=0;endArrow=classic;endFill=1;jettySize=auto;orthogonalLoop=1;strokeColor=#2F5B7C;strokeWidth=3;fontFamily=Helvetica;fontSize=16;fontColor=#23445D;spacing=5;" parent="1" source="1749" target="1760" edge="1">
          <mxGeometry relative="1" as="geometry" />
        </mxCell>
        <mxCell id="1748" value="" style="edgeStyle=none;rounded=1;jumpStyle=none;html=1;shadow=0;labelBackgroundColor=none;startArrow=none;startFill=0;endArrow=classic;endFill=1;jettySize=auto;orthogonalLoop=1;strokeColor=#2F5B7C;strokeWidth=3;fontFamily=Helvetica;fontSize=16;fontColor=#23445D;spacing=5;" parent="1" source="1749" target="1753" edge="1">
          <mxGeometry relative="1" as="geometry" />
        </mxCell>
        <mxCell id="1749" value="Безопасность данных" style="rounded=1;whiteSpace=wrap;html=1;shadow=0;labelBackgroundColor=none;strokeColor=none;strokeWidth=3;fillColor=#2F5B7C;fontFamily=Helvetica;fontSize=16;fontColor=#FFFFFF;align=center;fontStyle=1;spacing=5;arcSize=7;perimeterSpacing=2;" parent="1" vertex="1">
          <mxGeometry x="495" y="380.5" width="150" height="70" as="geometry" />
        </mxCell>
        <mxCell id="1750" value="" style="edgeStyle=none;rounded=1;jumpStyle=none;html=1;shadow=0;labelBackgroundColor=none;startArrow=none;startFill=0;jettySize=auto;orthogonalLoop=1;strokeColor=#E85642;strokeWidth=3;fontFamily=Helvetica;fontSize=14;fontColor=#FFFFFF;spacing=5;fontStyle=1;fillColor=#b0e3e6;" parent="1" source="1753" target="1756" edge="1">
          <mxGeometry relative="1" as="geometry" />
        </mxCell>
        <mxCell id="1752" value="" style="edgeStyle=none;rounded=1;jumpStyle=none;html=1;shadow=0;labelBackgroundColor=none;startArrow=none;startFill=0;jettySize=auto;orthogonalLoop=1;strokeColor=#E85642;strokeWidth=3;fontFamily=Helvetica;fontSize=14;fontColor=#FFFFFF;spacing=5;fontStyle=1;fillColor=#b0e3e6;" parent="1" source="1753" target="1754" edge="1">
          <mxGeometry relative="1" as="geometry" />
        </mxCell>
        <mxCell id="1753" value="&lt;span style=&quot;font-size: 16px;&quot;&gt;Секретные данные&lt;/span&gt;" style="rounded=1;whiteSpace=wrap;html=1;shadow=0;labelBackgroundColor=none;strokeColor=none;strokeWidth=3;fillColor=#e85642;fontFamily=Helvetica;fontSize=14;fontColor=#FFFFFF;align=center;spacing=5;fontStyle=1;arcSize=7;perimeterSpacing=2;" parent="1" vertex="1">
          <mxGeometry x="215" y="385.5" width="150" height="60" as="geometry" />
        </mxCell>
        <mxCell id="1754" value="&lt;span style=&quot;font-size:11.0pt;line-height:107%;&lt;br/&gt;font-family:&amp;quot;Calibri&amp;quot;,sans-serif;mso-ascii-theme-font:minor-latin;mso-fareast-font-family:&lt;br/&gt;Calibri;mso-fareast-theme-font:minor-latin;mso-hansi-theme-font:minor-latin;&lt;br/&gt;mso-bidi-font-family:&amp;quot;Times New Roman&amp;quot;;mso-bidi-theme-font:minor-bidi;&lt;br/&gt;mso-ansi-language:RU;mso-fareast-language:EN-US;mso-bidi-language:AR-SA&quot;&gt;Платежные&lt;br/&gt;данные пользователей&lt;/span&gt;" style="rounded=1;whiteSpace=wrap;html=1;shadow=0;labelBackgroundColor=none;strokeColor=none;strokeWidth=3;fillColor=#f08e81;fontFamily=Helvetica;fontSize=14;fontColor=#FFFFFF;align=center;spacing=5;fontStyle=0;arcSize=7;perimeterSpacing=2;" parent="1" vertex="1">
          <mxGeometry x="-190" y="540" width="150" height="60" as="geometry" />
        </mxCell>
        <mxCell id="1756" value="&lt;span style=&quot;font-size:11.0pt;line-height:107%;&lt;br/&gt;font-family:&amp;quot;Calibri&amp;quot;,sans-serif;mso-ascii-theme-font:minor-latin;mso-fareast-font-family:&lt;br/&gt;Calibri;mso-fareast-theme-font:minor-latin;mso-hansi-theme-font:minor-latin;&lt;br/&gt;mso-bidi-font-family:&amp;quot;Times New Roman&amp;quot;;mso-bidi-theme-font:minor-bidi;&lt;br/&gt;mso-ansi-language:RU;mso-fareast-language:EN-US;mso-bidi-language:AR-SA&quot;&gt;Креды&lt;br/&gt;для подключения к внешним сервисам&lt;/span&gt;" style="rounded=1;whiteSpace=wrap;html=1;shadow=0;labelBackgroundColor=none;strokeColor=none;strokeWidth=3;fillColor=#f08e81;fontFamily=Helvetica;fontSize=14;fontColor=#FFFFFF;align=center;spacing=5;fontStyle=0;arcSize=7;perimeterSpacing=2;" parent="1" vertex="1">
          <mxGeometry x="-200" y="121" width="150" height="60" as="geometry" />
        </mxCell>
        <mxCell id="1757" value="" style="edgeStyle=none;rounded=1;jumpStyle=none;html=1;shadow=0;labelBackgroundColor=none;startArrow=none;startFill=0;endArrow=classic;endFill=1;jettySize=auto;orthogonalLoop=1;strokeColor=#1699D3;strokeWidth=3;fontFamily=Helvetica;fontSize=14;fontColor=#FFFFFF;spacing=5;" parent="1" source="1760" target="1763" edge="1">
          <mxGeometry relative="1" as="geometry" />
        </mxCell>
        <mxCell id="1759" value="" style="edgeStyle=none;rounded=1;jumpStyle=none;html=1;shadow=0;labelBackgroundColor=none;startArrow=none;startFill=0;endArrow=classic;endFill=1;jettySize=auto;orthogonalLoop=1;strokeColor=#1699D3;strokeWidth=3;fontFamily=Helvetica;fontSize=14;fontColor=#FFFFFF;spacing=5;" parent="1" source="1760" target="1761" edge="1">
          <mxGeometry relative="1" as="geometry" />
        </mxCell>
        <mxCell id="1760" value="&lt;span style=&quot;font-size: 16px;&quot;&gt;Внутренние данные&lt;/span&gt;" style="rounded=1;whiteSpace=wrap;html=1;shadow=0;labelBackgroundColor=none;strokeColor=none;strokeWidth=3;fillColor=#1699d3;fontFamily=Helvetica;fontSize=14;fontColor=#FFFFFF;align=center;spacing=5;fontStyle=1;arcSize=7;perimeterSpacing=2;" parent="1" vertex="1">
          <mxGeometry x="495" y="570.5" width="150" height="60" as="geometry" />
        </mxCell>
        <mxCell id="1761" value="Аналитические данные для BI" style="rounded=1;whiteSpace=wrap;html=1;shadow=0;labelBackgroundColor=none;strokeColor=none;strokeWidth=3;fillColor=#64bbe2;fontFamily=Helvetica;fontSize=14;fontColor=#FFFFFF;align=center;spacing=5;arcSize=7;perimeterSpacing=2;" parent="1" vertex="1">
          <mxGeometry x="640" y="767" width="150" height="60" as="geometry" />
        </mxCell>
        <mxCell id="1763" value="Настройки системы и технические дынные" style="rounded=1;whiteSpace=wrap;html=1;shadow=0;labelBackgroundColor=none;strokeColor=none;strokeWidth=3;fillColor=#64bbe2;fontFamily=Helvetica;fontSize=14;fontColor=#FFFFFF;align=center;spacing=5;arcSize=7;perimeterSpacing=2;" parent="1" vertex="1">
          <mxGeometry x="330" y="760" width="150" height="60" as="geometry" />
        </mxCell>
        <mxCell id="1764" value="&lt;span style=&quot;font-size: 16px;&quot;&gt;Конфиденциальные данные&lt;/span&gt;" style="rounded=1;whiteSpace=wrap;html=1;shadow=0;labelBackgroundColor=none;strokeColor=none;strokeWidth=3;fillColor=#F08705;fontFamily=Helvetica;fontSize=14;fontColor=#FFFFFF;align=center;spacing=5;fontStyle=1;arcSize=7;perimeterSpacing=2;" parent="1" vertex="1">
          <mxGeometry x="460" y="200.5" width="220" height="69.5" as="geometry" />
        </mxCell>
        <mxCell id="1765" value="&lt;span style=&quot;font-size:11.0pt;line-height:107%;&lt;br/&gt;font-family:&amp;quot;Calibri&amp;quot;,sans-serif;mso-ascii-theme-font:minor-latin;mso-fareast-font-family:&lt;br/&gt;Calibri;mso-fareast-theme-font:minor-latin;mso-hansi-theme-font:minor-latin;&lt;br/&gt;mso-bidi-font-family:&amp;quot;Times New Roman&amp;quot;;mso-bidi-theme-font:minor-bidi;&lt;br/&gt;mso-ansi-language:RU;mso-fareast-language:EN-US;mso-bidi-language:AR-SA&quot;&gt;История&lt;br/&gt;платежей ЖКХ&lt;/span&gt;" style="rounded=1;whiteSpace=wrap;html=1;shadow=0;labelBackgroundColor=none;strokeColor=none;strokeWidth=3;fillColor=#f5af58;fontFamily=Helvetica;fontSize=14;fontColor=#FFFFFF;align=center;spacing=5;arcSize=7;perimeterSpacing=2;" parent="1" vertex="1">
          <mxGeometry x="365" y="-450" width="150" height="60" as="geometry" />
        </mxCell>
        <mxCell id="1766" value="" style="edgeStyle=none;rounded=1;jumpStyle=none;html=1;shadow=0;labelBackgroundColor=none;startArrow=none;startFill=0;endArrow=classic;endFill=1;jettySize=auto;orthogonalLoop=1;strokeColor=#F08705;strokeWidth=3;fontFamily=Helvetica;fontSize=14;fontColor=#FFFFFF;spacing=5;entryX=0;entryY=0.5;entryDx=0;entryDy=0;" parent="1" source="1764" target="BpoL6sSreTDUZBfIPBe1-1933" edge="1">
          <mxGeometry relative="1" as="geometry" />
        </mxCell>
        <mxCell id="1767" value="&lt;span style=&quot;font-size:11.0pt;line-height:107%;&lt;br/&gt;font-family:&amp;quot;Calibri&amp;quot;,sans-serif;mso-ascii-theme-font:minor-latin;mso-fareast-font-family:&lt;br/&gt;Calibri;mso-fareast-theme-font:minor-latin;mso-hansi-theme-font:minor-latin;&lt;br/&gt;mso-bidi-font-family:&amp;quot;Times New Roman&amp;quot;;mso-bidi-theme-font:minor-bidi;&lt;br/&gt;mso-ansi-language:RU;mso-fareast-language:EN-US;mso-bidi-language:AR-SA&quot;&gt;Учётные&lt;br/&gt;данные (клиентов и собственников)&lt;/span&gt;" style="rounded=1;whiteSpace=wrap;html=1;shadow=0;labelBackgroundColor=none;strokeColor=none;strokeWidth=3;fillColor=#f5af58;fontFamily=Helvetica;fontSize=14;fontColor=#FFFFFF;align=center;spacing=5;arcSize=7;perimeterSpacing=2;" parent="1" vertex="1">
          <mxGeometry x="550" y="-160" width="150" height="60" as="geometry" />
        </mxCell>
        <mxCell id="1768" value="" style="edgeStyle=none;rounded=1;jumpStyle=none;html=1;shadow=0;labelBackgroundColor=none;startArrow=none;startFill=0;endArrow=classic;endFill=1;jettySize=auto;orthogonalLoop=1;strokeColor=#F08705;strokeWidth=3;fontFamily=Helvetica;fontSize=14;fontColor=#FFFFFF;spacing=5;exitX=0.75;exitY=0;exitDx=0;exitDy=0;" parent="1" source="1764" target="1767" edge="1">
          <mxGeometry relative="1" as="geometry" />
        </mxCell>
        <mxCell id="1769" value="&lt;span style=&quot;font-size:11.0pt;line-height:107%;&lt;br/&gt;font-family:&amp;quot;Calibri&amp;quot;,sans-serif;mso-ascii-theme-font:minor-latin;mso-fareast-font-family:&lt;br/&gt;Calibri;mso-fareast-theme-font:minor-latin;mso-hansi-theme-font:minor-latin;&lt;br/&gt;mso-bidi-font-family:&amp;quot;Times New Roman&amp;quot;;mso-bidi-theme-font:minor-bidi;&lt;br/&gt;mso-ansi-language:RU;mso-fareast-language:EN-US;mso-bidi-language:AR-SA&quot;&gt;Персональные&lt;br&gt;данные клиентов и собственников&lt;/span&gt;" style="rounded=1;whiteSpace=wrap;html=1;shadow=0;labelBackgroundColor=none;strokeColor=none;strokeWidth=3;fillColor=#f5af58;fontFamily=Helvetica;fontSize=14;fontColor=#FFFFFF;align=center;spacing=5;arcSize=7;perimeterSpacing=2;" parent="1" vertex="1">
          <mxGeometry x="260" y="-100" width="150" height="60" as="geometry" />
        </mxCell>
        <mxCell id="1770" value="" style="edgeStyle=none;rounded=1;jumpStyle=none;html=1;shadow=0;labelBackgroundColor=none;startArrow=none;startFill=0;endArrow=classic;endFill=1;jettySize=auto;orthogonalLoop=1;strokeColor=#F08705;strokeWidth=3;fontFamily=Helvetica;fontSize=14;fontColor=#FFFFFF;spacing=5;exitX=0.134;exitY=0.009;exitDx=0;exitDy=0;exitPerimeter=0;" parent="1" source="1764" target="1769" edge="1">
          <mxGeometry relative="1" as="geometry" />
        </mxCell>
        <mxCell id="1771" value="&lt;span style=&quot;font-size: 16px;&quot;&gt;Публичные данные&lt;/span&gt;" style="rounded=1;whiteSpace=wrap;html=1;shadow=0;labelBackgroundColor=none;strokeColor=none;strokeWidth=3;fillColor=#12aab5;fontFamily=Helvetica;fontSize=14;fontColor=#FFFFFF;align=center;spacing=5;fontStyle=1;arcSize=7;perimeterSpacing=2;" parent="1" vertex="1">
          <mxGeometry x="795" y="385.4999999999999" width="150" height="60" as="geometry" />
        </mxCell>
        <mxCell id="1772" value="Данные приложения&amp;nbsp;&lt;div&gt;client-tour-app&lt;/div&gt;" style="rounded=1;whiteSpace=wrap;html=1;shadow=0;labelBackgroundColor=none;strokeColor=none;strokeWidth=3;fillColor=#61c6ce;fontFamily=Helvetica;fontSize=14;fontColor=#FFFFFF;align=center;spacing=5;fontStyle=0;arcSize=7;perimeterSpacing=2;" parent="1" vertex="1">
          <mxGeometry x="900" y="550" width="150" height="60" as="geometry" />
        </mxCell>
        <mxCell id="1773" value="" style="edgeStyle=none;rounded=1;jumpStyle=none;html=1;shadow=0;labelBackgroundColor=none;startArrow=none;startFill=0;jettySize=auto;orthogonalLoop=1;strokeColor=#12AAB5;strokeWidth=3;fontFamily=Helvetica;fontSize=14;fontColor=#FFFFFF;spacing=5;fontStyle=1;fillColor=#b0e3e6;" parent="1" source="1771" target="1772" edge="1">
          <mxGeometry relative="1" as="geometry" />
        </mxCell>
        <mxCell id="1776" value="Каталог&amp;nbsp;объектов недвижимости&amp;nbsp;" style="rounded=1;whiteSpace=wrap;html=1;shadow=0;labelBackgroundColor=none;strokeColor=none;strokeWidth=3;fillColor=#61c6ce;fontFamily=Helvetica;fontSize=14;fontColor=#FFFFFF;align=center;spacing=5;fontStyle=0;arcSize=7;perimeterSpacing=2;" parent="1" vertex="1">
          <mxGeometry x="910" y="254.5" width="150" height="60" as="geometry" />
        </mxCell>
        <mxCell id="1777" value="" style="edgeStyle=none;rounded=1;jumpStyle=none;html=1;shadow=0;labelBackgroundColor=none;startArrow=none;startFill=0;jettySize=auto;orthogonalLoop=1;strokeColor=#12AAB5;strokeWidth=3;fontFamily=Helvetica;fontSize=14;fontColor=#FFFFFF;spacing=5;fontStyle=1;fillColor=#b0e3e6;" parent="1" source="1771" target="1776" edge="1">
          <mxGeometry relative="1" as="geometry" />
        </mxCell>
        <mxCell id="BpoL6sSreTDUZBfIPBe1-1779" value="утечка данных (-)" style="rounded=1;whiteSpace=wrap;html=1;shadow=0;labelBackgroundColor=none;strokeColor=#82b366;strokeWidth=3;fillColor=#d5e8d4;fontFamily=Helvetica;fontSize=14;align=center;spacing=5;fontStyle=0;arcSize=7;perimeterSpacing=2;" vertex="1" parent="1">
          <mxGeometry x="1320" y="150" width="160" height="40" as="geometry" />
        </mxCell>
        <mxCell id="BpoL6sSreTDUZBfIPBe1-1780" value="потеря данных (K)" style="rounded=1;whiteSpace=wrap;html=1;shadow=0;labelBackgroundColor=none;strokeColor=none;strokeWidth=3;fillColor=#E6410A;fontFamily=Helvetica;fontSize=14;fontColor=#FFFFFF;align=center;spacing=5;fontStyle=0;arcSize=7;perimeterSpacing=2;" vertex="1" parent="1">
          <mxGeometry x="1320" y="200.5" width="160" height="40" as="geometry" />
        </mxCell>
        <mxCell id="BpoL6sSreTDUZBfIPBe1-1781" value="искажение данных (З)" style="rounded=1;whiteSpace=wrap;html=1;shadow=0;labelBackgroundColor=none;strokeColor=none;strokeWidth=3;fillColor=#CE621B;fontFamily=Helvetica;fontSize=14;fontColor=#FFFFFF;align=center;spacing=5;fontStyle=0;arcSize=7;perimeterSpacing=2;" vertex="1" parent="1">
          <mxGeometry x="1320" y="264.5" width="160" height="40" as="geometry" />
        </mxCell>
        <mxCell id="BpoL6sSreTDUZBfIPBe1-1782" value="некачественные данные (З)" style="rounded=1;whiteSpace=wrap;html=1;shadow=0;labelBackgroundColor=none;strokeColor=none;strokeWidth=3;fillColor=#CE621B;fontFamily=Helvetica;fontSize=14;fontColor=#FFFFFF;align=center;spacing=5;fontStyle=0;arcSize=7;perimeterSpacing=2;" vertex="1" parent="1">
          <mxGeometry x="1320" y="314.5" width="160" height="40" as="geometry" />
        </mxCell>
        <mxCell id="BpoL6sSreTDUZBfIPBe1-1783" value="обесценивание данных (-)" style="rounded=1;whiteSpace=wrap;html=1;shadow=0;labelBackgroundColor=none;strokeColor=#82b366;strokeWidth=3;fillColor=#d5e8d4;fontFamily=Helvetica;fontSize=14;align=center;spacing=5;fontStyle=0;arcSize=7;perimeterSpacing=2;" vertex="1" parent="1">
          <mxGeometry x="1320" y="370" width="160" height="40" as="geometry" />
        </mxCell>
        <mxCell id="BpoL6sSreTDUZBfIPBe1-1786" value="" style="edgeStyle=none;rounded=1;jumpStyle=none;html=1;shadow=0;labelBackgroundColor=none;startArrow=none;startFill=0;jettySize=auto;orthogonalLoop=1;strokeColor=#E6410A;strokeWidth=3;fontFamily=Helvetica;fontSize=14;fontColor=#FFFFFF;spacing=5;fontStyle=1;fillColor=#b0e3e6;entryX=0;entryY=0.5;entryDx=0;entryDy=0;" edge="1" parent="1" target="BpoL6sSreTDUZBfIPBe1-1780">
          <mxGeometry relative="1" as="geometry">
            <mxPoint x="1062" y="253" as="sourcePoint" />
            <mxPoint x="1247" y="190" as="targetPoint" />
          </mxGeometry>
        </mxCell>
        <mxCell id="BpoL6sSreTDUZBfIPBe1-1790" value="&lt;div&gt;Потеря работоспособности сервиса.&amp;nbsp;&lt;/div&gt;&lt;div&gt;Невозможность проведения сделок,&amp;nbsp;&lt;/div&gt;&lt;div&gt;финансовые и репутационные потери&lt;/div&gt;" style="edgeLabel;html=1;align=center;verticalAlign=middle;resizable=0;points=[];fontColor=#000000;" vertex="1" connectable="0" parent="BpoL6sSreTDUZBfIPBe1-1786">
          <mxGeometry x="-0.1452" y="1" relative="1" as="geometry">
            <mxPoint as="offset" />
          </mxGeometry>
        </mxCell>
        <mxCell id="BpoL6sSreTDUZBfIPBe1-1793" value="" style="edgeStyle=none;rounded=1;jumpStyle=none;html=1;shadow=0;labelBackgroundColor=none;startArrow=none;startFill=0;jettySize=auto;orthogonalLoop=1;strokeColor=#CE621B;strokeWidth=3;fontFamily=Helvetica;fontSize=14;fontColor=#FFFFFF;spacing=5;fontStyle=1;fillColor=#b0e3e6;entryX=0;entryY=0.5;entryDx=0;entryDy=0;exitX=1;exitY=0.5;exitDx=0;exitDy=0;" edge="1" parent="1" source="1776" target="BpoL6sSreTDUZBfIPBe1-1781">
          <mxGeometry relative="1" as="geometry">
            <mxPoint x="1072" y="263" as="sourcePoint" />
            <mxPoint x="1328" y="230" as="targetPoint" />
          </mxGeometry>
        </mxCell>
        <mxCell id="BpoL6sSreTDUZBfIPBe1-1794" value="&lt;font&gt;Деградация сервиса.&amp;nbsp;&lt;/font&gt;&lt;div&gt;&lt;font&gt;Потеря лояльности клиентов.&lt;/font&gt;&lt;/div&gt;" style="edgeLabel;html=1;align=center;verticalAlign=middle;resizable=0;points=[];fontColor=#000000;" vertex="1" connectable="0" parent="BpoL6sSreTDUZBfIPBe1-1793">
          <mxGeometry x="-0.1452" y="1" relative="1" as="geometry">
            <mxPoint as="offset" />
          </mxGeometry>
        </mxCell>
        <mxCell id="BpoL6sSreTDUZBfIPBe1-1795" value="" style="edgeStyle=none;rounded=1;jumpStyle=none;html=1;shadow=0;labelBackgroundColor=none;startArrow=none;startFill=0;jettySize=auto;orthogonalLoop=1;strokeColor=#CE621B;strokeWidth=3;fontFamily=Helvetica;fontSize=14;fontColor=#FFFFFF;spacing=5;fontStyle=1;fillColor=#b0e3e6;entryX=0;entryY=0.5;entryDx=0;entryDy=0;exitX=1;exitY=1;exitDx=0;exitDy=0;" edge="1" parent="1" source="1776" target="BpoL6sSreTDUZBfIPBe1-1782">
          <mxGeometry relative="1" as="geometry">
            <mxPoint x="1060" y="304.5" as="sourcePoint" />
            <mxPoint x="1316" y="321.5" as="targetPoint" />
          </mxGeometry>
        </mxCell>
        <mxCell id="BpoL6sSreTDUZBfIPBe1-1796" value="&lt;font&gt;Деградация сервиса.&amp;nbsp;&lt;/font&gt;&lt;div&gt;&lt;font&gt;Потеря лояльности клиентов.&lt;/font&gt;&lt;/div&gt;" style="edgeLabel;html=1;align=center;verticalAlign=middle;resizable=0;points=[];fontColor=#000000;" vertex="1" connectable="0" parent="BpoL6sSreTDUZBfIPBe1-1795">
          <mxGeometry x="-0.1452" y="1" relative="1" as="geometry">
            <mxPoint as="offset" />
          </mxGeometry>
        </mxCell>
        <mxCell id="BpoL6sSreTDUZBfIPBe1-1801" value="утечка данных (-)" style="rounded=1;whiteSpace=wrap;html=1;shadow=0;labelBackgroundColor=none;strokeColor=#82b366;strokeWidth=3;fillColor=#d5e8d4;fontFamily=Helvetica;fontSize=14;align=center;spacing=5;fontStyle=0;arcSize=7;perimeterSpacing=2;" vertex="1" parent="1">
          <mxGeometry x="1318" y="445.5" width="160" height="40" as="geometry" />
        </mxCell>
        <mxCell id="BpoL6sSreTDUZBfIPBe1-1802" value="потеря данных (З)" style="rounded=1;whiteSpace=wrap;html=1;shadow=0;labelBackgroundColor=none;strokeColor=none;strokeWidth=3;fillColor=#CE621B;fontFamily=Helvetica;fontSize=14;fontColor=#FFFFFF;align=center;spacing=5;fontStyle=0;arcSize=7;perimeterSpacing=2;" vertex="1" parent="1">
          <mxGeometry x="1318" y="496" width="160" height="40" as="geometry" />
        </mxCell>
        <mxCell id="BpoL6sSreTDUZBfIPBe1-1803" value="искажение данных (З)" style="rounded=1;whiteSpace=wrap;html=1;shadow=0;labelBackgroundColor=none;strokeColor=none;strokeWidth=3;fillColor=#CE621B;fontFamily=Helvetica;fontSize=14;fontColor=#FFFFFF;align=center;spacing=5;fontStyle=0;arcSize=7;perimeterSpacing=2;" vertex="1" parent="1">
          <mxGeometry x="1318" y="560" width="160" height="40" as="geometry" />
        </mxCell>
        <mxCell id="BpoL6sSreTDUZBfIPBe1-1804" value="некачественные данные (З)" style="rounded=1;whiteSpace=wrap;html=1;shadow=0;labelBackgroundColor=none;strokeColor=none;strokeWidth=3;fillColor=#CE621B;fontFamily=Helvetica;fontSize=14;fontColor=#FFFFFF;align=center;spacing=5;fontStyle=0;arcSize=7;perimeterSpacing=2;" vertex="1" parent="1">
          <mxGeometry x="1318" y="610" width="160" height="40" as="geometry" />
        </mxCell>
        <mxCell id="BpoL6sSreTDUZBfIPBe1-1805" value="обесценивание данных (-)" style="rounded=1;whiteSpace=wrap;html=1;shadow=0;labelBackgroundColor=none;strokeColor=#82b366;strokeWidth=3;fillColor=#d5e8d4;fontFamily=Helvetica;fontSize=14;align=center;spacing=5;fontStyle=0;arcSize=7;perimeterSpacing=2;" vertex="1" parent="1">
          <mxGeometry x="1318" y="665.5" width="160" height="40" as="geometry" />
        </mxCell>
        <mxCell id="BpoL6sSreTDUZBfIPBe1-1806" value="" style="edgeStyle=none;rounded=1;jumpStyle=none;html=1;shadow=0;labelBackgroundColor=none;startArrow=none;startFill=0;jettySize=auto;orthogonalLoop=1;strokeColor=#CE621B;strokeWidth=3;fontFamily=Helvetica;fontSize=14;fontColor=#FFFFFF;spacing=5;fontStyle=1;fillColor=#b0e3e6;entryX=0;entryY=0.5;entryDx=0;entryDy=0;" edge="1" parent="1" target="BpoL6sSreTDUZBfIPBe1-1802">
          <mxGeometry relative="1" as="geometry">
            <mxPoint x="1060" y="548.5" as="sourcePoint" />
            <mxPoint x="1245" y="485.5" as="targetPoint" />
          </mxGeometry>
        </mxCell>
        <mxCell id="BpoL6sSreTDUZBfIPBe1-1807" value="&lt;font style=&quot;&quot;&gt;Деградация сервиса.&amp;nbsp;&lt;/font&gt;&lt;div style=&quot;&quot;&gt;Потеря лояльности клиентов.&lt;/div&gt;" style="edgeLabel;html=1;align=center;verticalAlign=middle;resizable=0;points=[];fontColor=#000000;" vertex="1" connectable="0" parent="BpoL6sSreTDUZBfIPBe1-1806">
          <mxGeometry x="-0.1452" y="1" relative="1" as="geometry">
            <mxPoint as="offset" />
          </mxGeometry>
        </mxCell>
        <mxCell id="BpoL6sSreTDUZBfIPBe1-1808" value="" style="edgeStyle=none;rounded=1;jumpStyle=none;html=1;shadow=0;labelBackgroundColor=none;startArrow=none;startFill=0;jettySize=auto;orthogonalLoop=1;strokeColor=#CE621B;strokeWidth=3;fontFamily=Helvetica;fontSize=14;fontColor=#FFFFFF;spacing=5;fontStyle=1;fillColor=#b0e3e6;entryX=0;entryY=0.5;entryDx=0;entryDy=0;exitX=1;exitY=0.5;exitDx=0;exitDy=0;" edge="1" parent="1" target="BpoL6sSreTDUZBfIPBe1-1803">
          <mxGeometry relative="1" as="geometry">
            <mxPoint x="1060" y="580.5" as="sourcePoint" />
            <mxPoint x="1326" y="525.5" as="targetPoint" />
          </mxGeometry>
        </mxCell>
        <mxCell id="BpoL6sSreTDUZBfIPBe1-1809" value="&lt;font&gt;Деградация сервиса.&amp;nbsp;&lt;/font&gt;&lt;div&gt;&lt;font&gt;Потеря лояльности клиентов.&lt;/font&gt;&lt;/div&gt;" style="edgeLabel;html=1;align=center;verticalAlign=middle;resizable=0;points=[];fontColor=#000000;" vertex="1" connectable="0" parent="BpoL6sSreTDUZBfIPBe1-1808">
          <mxGeometry x="-0.1452" y="1" relative="1" as="geometry">
            <mxPoint as="offset" />
          </mxGeometry>
        </mxCell>
        <mxCell id="BpoL6sSreTDUZBfIPBe1-1810" value="" style="edgeStyle=none;rounded=1;jumpStyle=none;html=1;shadow=0;labelBackgroundColor=none;startArrow=none;startFill=0;jettySize=auto;orthogonalLoop=1;strokeColor=#CE621B;strokeWidth=3;fontFamily=Helvetica;fontSize=14;fontColor=#FFFFFF;spacing=5;fontStyle=1;fillColor=#b0e3e6;entryX=0;entryY=0.5;entryDx=0;entryDy=0;exitX=1;exitY=1;exitDx=0;exitDy=0;" edge="1" parent="1" target="BpoL6sSreTDUZBfIPBe1-1804">
          <mxGeometry relative="1" as="geometry">
            <mxPoint x="1060" y="612.5" as="sourcePoint" />
            <mxPoint x="1314" y="617" as="targetPoint" />
          </mxGeometry>
        </mxCell>
        <mxCell id="BpoL6sSreTDUZBfIPBe1-1811" value="&lt;font color=&quot;#000000&quot;&gt;Деградация сервиса.&amp;nbsp;&lt;/font&gt;&lt;div&gt;&lt;font color=&quot;#000000&quot;&gt;Потеря лояльности клиентов.&lt;/font&gt;&lt;/div&gt;" style="edgeLabel;html=1;align=center;verticalAlign=middle;resizable=0;points=[];fontColor=#CE621B;" vertex="1" connectable="0" parent="BpoL6sSreTDUZBfIPBe1-1810">
          <mxGeometry x="-0.1452" y="1" relative="1" as="geometry">
            <mxPoint as="offset" />
          </mxGeometry>
        </mxCell>
        <mxCell id="BpoL6sSreTDUZBfIPBe1-1822" value="потеря данных (З)" style="rounded=1;whiteSpace=wrap;html=1;shadow=0;labelBackgroundColor=none;strokeColor=none;strokeWidth=3;fillColor=#CE621B;fontFamily=Helvetica;fontSize=14;fontColor=#FFFFFF;align=center;spacing=5;fontStyle=0;arcSize=7;perimeterSpacing=2;" vertex="1" parent="1">
          <mxGeometry x="950" y="817.5" width="160" height="40" as="geometry" />
        </mxCell>
        <mxCell id="BpoL6sSreTDUZBfIPBe1-1823" value="искажение данных (З)" style="rounded=1;whiteSpace=wrap;html=1;shadow=0;labelBackgroundColor=none;strokeColor=none;strokeWidth=3;fillColor=#CE621B;fontFamily=Helvetica;fontSize=14;fontColor=#FFFFFF;align=center;spacing=5;fontStyle=0;arcSize=7;perimeterSpacing=2;" vertex="1" parent="1">
          <mxGeometry x="950" y="866.5" width="160" height="40" as="geometry" />
        </mxCell>
        <mxCell id="BpoL6sSreTDUZBfIPBe1-1824" value="некачественные данные (З)" style="rounded=1;whiteSpace=wrap;html=1;shadow=0;labelBackgroundColor=none;strokeColor=none;strokeWidth=3;fillColor=#CE621B;fontFamily=Helvetica;fontSize=14;fontColor=#FFFFFF;align=center;spacing=5;fontStyle=0;arcSize=7;perimeterSpacing=2;" vertex="1" parent="1">
          <mxGeometry x="950" y="914.5" width="160" height="40" as="geometry" />
        </mxCell>
        <mxCell id="BpoL6sSreTDUZBfIPBe1-1826" value="утечка данных (З)" style="rounded=1;whiteSpace=wrap;html=1;shadow=0;labelBackgroundColor=none;strokeColor=none;strokeWidth=3;fillColor=#CE621B;fontFamily=Helvetica;fontSize=14;fontColor=#FFFFFF;align=center;spacing=5;fontStyle=0;arcSize=7;perimeterSpacing=2;" vertex="1" parent="1">
          <mxGeometry x="950" y="770" width="160" height="40" as="geometry" />
        </mxCell>
        <mxCell id="BpoL6sSreTDUZBfIPBe1-1827" value="обесценивание данных (Н)" style="rounded=1;whiteSpace=wrap;html=1;shadow=0;labelBackgroundColor=none;strokeColor=none;strokeWidth=3;fillColor=#388C38;fontFamily=Helvetica;fontSize=14;fontColor=#FFFFFF;align=center;spacing=5;fontStyle=0;arcSize=7;perimeterSpacing=2;" vertex="1" parent="1">
          <mxGeometry x="950" y="970" width="160" height="40" as="geometry" />
        </mxCell>
        <mxCell id="BpoL6sSreTDUZBfIPBe1-1832" value="" style="edgeStyle=none;rounded=1;jumpStyle=none;html=1;shadow=0;labelBackgroundColor=none;startArrow=none;startFill=0;endArrow=classic;endFill=1;jettySize=auto;orthogonalLoop=1;strokeColor=#CE621B;strokeWidth=3;fontFamily=Helvetica;fontSize=14;fontColor=#FFFFFF;spacing=5;exitX=1;exitY=0;exitDx=0;exitDy=0;entryX=0;entryY=0.5;entryDx=0;entryDy=0;" edge="1" parent="1" source="1761" target="BpoL6sSreTDUZBfIPBe1-1826">
          <mxGeometry relative="1" as="geometry">
            <mxPoint x="787" y="643" as="sourcePoint" />
            <mxPoint x="884" y="775" as="targetPoint" />
          </mxGeometry>
        </mxCell>
        <mxCell id="BpoL6sSreTDUZBfIPBe1-1833" value="" style="edgeStyle=none;rounded=1;jumpStyle=none;html=1;shadow=0;labelBackgroundColor=none;startArrow=none;startFill=0;endArrow=classic;endFill=1;jettySize=auto;orthogonalLoop=1;strokeColor=#CE621B;strokeWidth=3;fontFamily=Helvetica;fontSize=14;fontColor=#FFFFFF;spacing=5;exitX=1;exitY=0.25;exitDx=0;exitDy=0;entryX=0;entryY=0.5;entryDx=0;entryDy=0;" edge="1" parent="1" source="1761" target="BpoL6sSreTDUZBfIPBe1-1822">
          <mxGeometry relative="1" as="geometry">
            <mxPoint x="754" y="954.5" as="sourcePoint" />
            <mxPoint x="910" y="979.5" as="targetPoint" />
          </mxGeometry>
        </mxCell>
        <mxCell id="BpoL6sSreTDUZBfIPBe1-1834" value="" style="edgeStyle=none;rounded=1;jumpStyle=none;html=1;shadow=0;labelBackgroundColor=none;startArrow=none;startFill=0;endArrow=classic;endFill=1;jettySize=auto;orthogonalLoop=1;strokeColor=#CE621B;strokeWidth=3;fontFamily=Helvetica;fontSize=14;fontColor=#FFFFFF;spacing=5;exitX=1;exitY=0.5;exitDx=0;exitDy=0;entryX=0;entryY=0.5;entryDx=0;entryDy=0;" edge="1" parent="1" source="1761" target="BpoL6sSreTDUZBfIPBe1-1823">
          <mxGeometry relative="1" as="geometry">
            <mxPoint x="812" y="785" as="sourcePoint" />
            <mxPoint x="968" y="810" as="targetPoint" />
          </mxGeometry>
        </mxCell>
        <mxCell id="BpoL6sSreTDUZBfIPBe1-1835" value="" style="edgeStyle=none;rounded=1;jumpStyle=none;html=1;shadow=0;labelBackgroundColor=none;startArrow=none;startFill=0;endArrow=classic;endFill=1;jettySize=auto;orthogonalLoop=1;strokeColor=#CE621B;strokeWidth=3;fontFamily=Helvetica;fontSize=14;fontColor=#FFFFFF;spacing=5;exitX=1;exitY=0.75;exitDx=0;exitDy=0;entryX=0;entryY=0.5;entryDx=0;entryDy=0;" edge="1" parent="1" source="1761" target="BpoL6sSreTDUZBfIPBe1-1824">
          <mxGeometry relative="1" as="geometry">
            <mxPoint x="822" y="795" as="sourcePoint" />
            <mxPoint x="978" y="820" as="targetPoint" />
          </mxGeometry>
        </mxCell>
        <mxCell id="BpoL6sSreTDUZBfIPBe1-1836" value="" style="edgeStyle=none;rounded=1;jumpStyle=none;html=1;shadow=0;labelBackgroundColor=none;startArrow=none;startFill=0;endArrow=classic;endFill=1;jettySize=auto;orthogonalLoop=1;strokeColor=#388C38;strokeWidth=3;fontFamily=Helvetica;fontSize=14;fontColor=#FFFFFF;spacing=5;exitX=1;exitY=1;exitDx=0;exitDy=0;entryX=0;entryY=0.5;entryDx=0;entryDy=0;" edge="1" parent="1" source="1761" target="BpoL6sSreTDUZBfIPBe1-1827">
          <mxGeometry relative="1" as="geometry">
            <mxPoint x="832" y="805" as="sourcePoint" />
            <mxPoint x="988" y="830" as="targetPoint" />
          </mxGeometry>
        </mxCell>
        <mxCell id="BpoL6sSreTDUZBfIPBe1-1847" value="&lt;p class=&quot;MsoNormal&quot;&gt;повышенный расход ресурсов на обработку и хранение ненужных данных&lt;/p&gt;" style="text;whiteSpace=wrap;html=1;" vertex="1" parent="1">
          <mxGeometry x="1120" y="970" width="440" height="40" as="geometry" />
        </mxCell>
        <mxCell id="BpoL6sSreTDUZBfIPBe1-1850" value="&lt;span style=&quot;line-height: 107%;&quot;&gt;&lt;font style=&quot;font-size: 12px;&quot;&gt;неверные управленческие решения, основанные на некачественных данных&lt;/font&gt;&lt;/span&gt;" style="text;whiteSpace=wrap;html=1;" vertex="1" parent="1">
          <mxGeometry x="1120" y="919.5" width="440" height="30" as="geometry" />
        </mxCell>
        <mxCell id="BpoL6sSreTDUZBfIPBe1-1851" value="&lt;span style=&quot;line-height: 107%;&quot;&gt;&lt;font style=&quot;font-size: 12px;&quot;&gt;неверные управленческие решения, основанные на искаженных данных&lt;/font&gt;&lt;/span&gt;" style="text;whiteSpace=wrap;html=1;" vertex="1" parent="1">
          <mxGeometry x="1120" y="869.75" width="440" height="33.5" as="geometry" />
        </mxCell>
        <mxCell id="BpoL6sSreTDUZBfIPBe1-1852" value="&lt;span style=&quot;line-height: 107%;&quot;&gt;финансовые потери при попадании данных к конкурентам&lt;/span&gt;" style="text;whiteSpace=wrap;html=1;" vertex="1" parent="1">
          <mxGeometry x="1120" y="778" width="440" height="30" as="geometry" />
        </mxCell>
        <mxCell id="BpoL6sSreTDUZBfIPBe1-1853" value="&lt;span style=&quot;line-height: 107%;&quot;&gt;неэффективное управление, в виду отсутствия аналитики&lt;/span&gt;" style="text;whiteSpace=wrap;html=1;" vertex="1" parent="1">
          <mxGeometry x="1120" y="823.5" width="440" height="32.5" as="geometry" />
        </mxCell>
        <mxCell id="BpoL6sSreTDUZBfIPBe1-1854" value="потеря данных (K)" style="rounded=1;whiteSpace=wrap;html=1;shadow=0;labelBackgroundColor=none;strokeColor=none;strokeWidth=3;fillColor=#E6410A;fontFamily=Helvetica;fontSize=14;fontColor=#FFFFFF;align=center;spacing=5;fontStyle=0;arcSize=7;perimeterSpacing=2;" vertex="1" parent="1">
          <mxGeometry x="-40" y="807.5" width="160" height="40" as="geometry" />
        </mxCell>
        <mxCell id="BpoL6sSreTDUZBfIPBe1-1855" value="искажение данных (K)" style="rounded=1;whiteSpace=wrap;html=1;shadow=0;labelBackgroundColor=none;strokeColor=none;strokeWidth=3;fillColor=#E6410A;fontFamily=Helvetica;fontSize=14;fontColor=#FFFFFF;align=center;spacing=5;fontStyle=0;arcSize=7;perimeterSpacing=2;" vertex="1" parent="1">
          <mxGeometry x="-40" y="856.5" width="160" height="40" as="geometry" />
        </mxCell>
        <mxCell id="BpoL6sSreTDUZBfIPBe1-1856" value="некачественные данные (K)" style="rounded=1;whiteSpace=wrap;html=1;shadow=0;labelBackgroundColor=none;strokeColor=none;strokeWidth=3;fillColor=#E6410A;fontFamily=Helvetica;fontSize=14;fontColor=#FFFFFF;align=center;spacing=5;fontStyle=0;arcSize=7;perimeterSpacing=2;" vertex="1" parent="1">
          <mxGeometry x="-40" y="904.5" width="160" height="40" as="geometry" />
        </mxCell>
        <mxCell id="BpoL6sSreTDUZBfIPBe1-1857" value="утечка данных (K)" style="rounded=1;whiteSpace=wrap;html=1;shadow=0;labelBackgroundColor=none;strokeColor=none;strokeWidth=3;fillColor=#E6410A;fontFamily=Helvetica;fontSize=14;fontColor=#FFFFFF;align=center;spacing=5;fontStyle=0;arcSize=7;perimeterSpacing=2;" vertex="1" parent="1">
          <mxGeometry x="-40" y="760" width="160" height="40" as="geometry" />
        </mxCell>
        <mxCell id="BpoL6sSreTDUZBfIPBe1-1858" value="обесценивание данных (Н)" style="rounded=1;whiteSpace=wrap;html=1;shadow=0;labelBackgroundColor=none;strokeColor=none;strokeWidth=3;fillColor=#388C38;fontFamily=Helvetica;fontSize=14;fontColor=#FFFFFF;align=center;spacing=5;fontStyle=0;arcSize=7;perimeterSpacing=2;" vertex="1" parent="1">
          <mxGeometry x="-40" y="960" width="160" height="40" as="geometry" />
        </mxCell>
        <mxCell id="BpoL6sSreTDUZBfIPBe1-1859" value="&lt;p class=&quot;MsoNormal&quot;&gt;&lt;span style=&quot;font-size: 9pt; line-height: 107%; font-family: Helvetica, sans-serif; background: rgb(251, 251, 251);&quot;&gt;Обесцененные данные приводят к повышению&lt;br/&gt;накладных расходов на обслуживание&lt;/span&gt;&lt;br&gt;&lt;/p&gt;" style="text;whiteSpace=wrap;html=1;" vertex="1" parent="1">
          <mxGeometry x="-325" y="944.5" width="275" height="29.5" as="geometry" />
        </mxCell>
        <mxCell id="BpoL6sSreTDUZBfIPBe1-1860" value="&lt;span style=&quot;font-size: 9pt; line-height: 107%; font-family: Helvetica, sans-serif; background-image: initial; background-position: initial; background-size: initial; background-repeat: initial; background-attachment: initial; background-origin: initial; background-clip: initial;&quot;&gt;Ошибочные данные могут привести к деградации или&lt;br/&gt;полной неработоспособности системы и (или) подсистем&lt;/span&gt;" style="text;whiteSpace=wrap;html=1;" vertex="1" parent="1">
          <mxGeometry x="-390" y="909.5" width="340" height="30" as="geometry" />
        </mxCell>
        <mxCell id="BpoL6sSreTDUZBfIPBe1-1861" value="&lt;span style=&quot;font-size: 9pt; line-height: 107%; font-family: Helvetica, sans-serif; background-image: initial; background-position: initial; background-size: initial; background-repeat: initial; background-attachment: initial; background-origin: initial; background-clip: initial;&quot;&gt;Искажения могут привести к деградации или полной&lt;br/&gt;неработоспособности системы и (или) подсистем&lt;/span&gt;" style="text;whiteSpace=wrap;html=1;" vertex="1" parent="1">
          <mxGeometry x="-370" y="859.75" width="440" height="33.5" as="geometry" />
        </mxCell>
        <mxCell id="BpoL6sSreTDUZBfIPBe1-1862" value="&lt;span style=&quot;font-size: 9pt; line-height: 107%; font-family: Helvetica, sans-serif; background-image: initial; background-position: initial; background-size: initial; background-repeat: initial; background-attachment: initial; background-origin: initial; background-clip: initial;&quot;&gt;Утечка может привести к несанкционированному&lt;br/&gt;доступу, и утечке более критичных данных&lt;/span&gt;" style="text;whiteSpace=wrap;html=1;" vertex="1" parent="1">
          <mxGeometry x="-345" y="760" width="285" height="30" as="geometry" />
        </mxCell>
        <mxCell id="BpoL6sSreTDUZBfIPBe1-1863" value="&lt;span style=&quot;font-size: 9pt; line-height: 107%; font-family: Helvetica, sans-serif; background-image: initial; background-position: initial; background-size: initial; background-repeat: initial; background-attachment: initial; background-origin: initial; background-clip: initial;&quot;&gt;Потеря системных данных может привести к&lt;br/&gt;деградации или полной неработоспособности системы и (или) подсистем&lt;/span&gt;" style="text;whiteSpace=wrap;html=1;" vertex="1" parent="1">
          <mxGeometry x="-370" y="808" width="330" height="32.5" as="geometry" />
        </mxCell>
        <mxCell id="BpoL6sSreTDUZBfIPBe1-1864" value="" style="edgeStyle=none;rounded=1;jumpStyle=none;html=1;shadow=0;labelBackgroundColor=none;startArrow=none;startFill=0;endArrow=classic;endFill=1;jettySize=auto;orthogonalLoop=1;strokeColor=#E6410A;strokeWidth=3;fontFamily=Helvetica;fontSize=14;fontColor=#FFFFFF;spacing=5;exitX=0;exitY=0;exitDx=0;exitDy=0;" edge="1" parent="1" source="1763" target="BpoL6sSreTDUZBfIPBe1-1857">
          <mxGeometry relative="1" as="geometry">
            <mxPoint x="282" y="775" as="sourcePoint" />
            <mxPoint x="438" y="800" as="targetPoint" />
          </mxGeometry>
        </mxCell>
        <mxCell id="BpoL6sSreTDUZBfIPBe1-1865" value="" style="edgeStyle=none;rounded=1;jumpStyle=none;html=1;shadow=0;labelBackgroundColor=none;startArrow=none;startFill=0;endArrow=classic;endFill=1;jettySize=auto;orthogonalLoop=1;strokeColor=#E6410A;strokeWidth=3;fontFamily=Helvetica;fontSize=14;fontColor=#FFFFFF;spacing=5;entryX=1;entryY=0.5;entryDx=0;entryDy=0;exitX=0;exitY=0.25;exitDx=0;exitDy=0;" edge="1" parent="1" source="1763" target="BpoL6sSreTDUZBfIPBe1-1854">
          <mxGeometry relative="1" as="geometry">
            <mxPoint x="330" y="770" as="sourcePoint" />
            <mxPoint x="132" y="784" as="targetPoint" />
          </mxGeometry>
        </mxCell>
        <mxCell id="BpoL6sSreTDUZBfIPBe1-1866" value="" style="edgeStyle=none;rounded=1;jumpStyle=none;html=1;shadow=0;labelBackgroundColor=none;startArrow=none;startFill=0;endArrow=classic;endFill=1;jettySize=auto;orthogonalLoop=1;strokeColor=#E6410A;strokeWidth=3;fontFamily=Helvetica;fontSize=14;fontColor=#FFFFFF;spacing=5;exitX=0;exitY=0.5;exitDx=0;exitDy=0;entryX=1;entryY=0.5;entryDx=0;entryDy=0;" edge="1" parent="1" source="1763" target="BpoL6sSreTDUZBfIPBe1-1855">
          <mxGeometry relative="1" as="geometry">
            <mxPoint x="348" y="778" as="sourcePoint" />
            <mxPoint x="142" y="794" as="targetPoint" />
          </mxGeometry>
        </mxCell>
        <mxCell id="BpoL6sSreTDUZBfIPBe1-1867" value="" style="edgeStyle=none;rounded=1;jumpStyle=none;html=1;shadow=0;labelBackgroundColor=none;startArrow=none;startFill=0;endArrow=classic;endFill=1;jettySize=auto;orthogonalLoop=1;strokeColor=#E6410A;strokeWidth=3;fontFamily=Helvetica;fontSize=14;fontColor=#FFFFFF;spacing=5;exitX=0;exitY=0.75;exitDx=0;exitDy=0;entryX=1;entryY=0.5;entryDx=0;entryDy=0;" edge="1" parent="1" source="1763" target="BpoL6sSreTDUZBfIPBe1-1856">
          <mxGeometry relative="1" as="geometry">
            <mxPoint x="358" y="788" as="sourcePoint" />
            <mxPoint x="152" y="804" as="targetPoint" />
          </mxGeometry>
        </mxCell>
        <mxCell id="BpoL6sSreTDUZBfIPBe1-1868" value="" style="edgeStyle=none;rounded=1;jumpStyle=none;html=1;shadow=0;labelBackgroundColor=none;startArrow=none;startFill=0;endArrow=classic;endFill=1;jettySize=auto;orthogonalLoop=1;strokeColor=#388C38;strokeWidth=3;fontFamily=Helvetica;fontSize=14;fontColor=#FFFFFF;spacing=5;exitX=0;exitY=1;exitDx=0;exitDy=0;entryX=1;entryY=0.5;entryDx=0;entryDy=0;" edge="1" parent="1" source="1763" target="BpoL6sSreTDUZBfIPBe1-1858">
          <mxGeometry relative="1" as="geometry">
            <mxPoint x="312" y="839" as="sourcePoint" />
            <mxPoint x="468" y="1000" as="targetPoint" />
          </mxGeometry>
        </mxCell>
        <mxCell id="BpoL6sSreTDUZBfIPBe1-1870" value="Учётные данные сотрудников продуктовой команды, бухгалтерии" style="rounded=1;whiteSpace=wrap;html=1;shadow=0;labelBackgroundColor=none;strokeColor=none;strokeWidth=3;fillColor=#64bbe2;fontFamily=Helvetica;fontSize=14;fontColor=#FFFFFF;align=center;spacing=5;arcSize=7;perimeterSpacing=2;" vertex="1" parent="1">
          <mxGeometry x="450" y="849.5" width="240" height="60" as="geometry" />
        </mxCell>
        <mxCell id="BpoL6sSreTDUZBfIPBe1-1871" value="" style="edgeStyle=none;rounded=1;jumpStyle=none;html=1;shadow=0;labelBackgroundColor=none;startArrow=none;startFill=0;endArrow=classic;endFill=1;jettySize=auto;orthogonalLoop=1;strokeColor=#1699D3;strokeWidth=3;fontFamily=Helvetica;fontSize=14;fontColor=#FFFFFF;spacing=5;exitX=0.5;exitY=1;exitDx=0;exitDy=0;entryX=0.5;entryY=0;entryDx=0;entryDy=0;" edge="1" parent="1" source="1760" target="BpoL6sSreTDUZBfIPBe1-1870">
          <mxGeometry relative="1" as="geometry">
            <mxPoint x="604" y="643" as="sourcePoint" />
            <mxPoint x="701" y="775" as="targetPoint" />
          </mxGeometry>
        </mxCell>
        <mxCell id="BpoL6sSreTDUZBfIPBe1-1881" value="потеря данных (З)" style="rounded=1;whiteSpace=wrap;html=1;shadow=0;labelBackgroundColor=none;strokeColor=none;strokeWidth=3;fillColor=#CE621B;fontFamily=Helvetica;fontSize=14;fontColor=#FFFFFF;align=center;spacing=5;fontStyle=0;arcSize=7;perimeterSpacing=2;" vertex="1" parent="1">
          <mxGeometry x="720" y="1105" width="160" height="40" as="geometry" />
        </mxCell>
        <mxCell id="BpoL6sSreTDUZBfIPBe1-1882" value="искажение данных (З&lt;span style=&quot;background-color: initial;&quot;&gt;)&lt;/span&gt;" style="rounded=1;whiteSpace=wrap;html=1;shadow=0;labelBackgroundColor=none;strokeColor=none;strokeWidth=3;fillColor=#CE621B;fontFamily=Helvetica;fontSize=14;fontColor=#FFFFFF;align=center;spacing=5;fontStyle=0;arcSize=7;perimeterSpacing=2;" vertex="1" parent="1">
          <mxGeometry x="720" y="1160" width="160" height="40" as="geometry" />
        </mxCell>
        <mxCell id="BpoL6sSreTDUZBfIPBe1-1883" value="некачественные данные (З)" style="rounded=1;whiteSpace=wrap;html=1;shadow=0;labelBackgroundColor=none;strokeColor=none;strokeWidth=3;fillColor=#CE621B;fontFamily=Helvetica;fontSize=14;fontColor=#FFFFFF;align=center;spacing=5;fontStyle=0;arcSize=7;perimeterSpacing=2;" vertex="1" parent="1">
          <mxGeometry x="720" y="1213" width="160" height="40" as="geometry" />
        </mxCell>
        <mxCell id="BpoL6sSreTDUZBfIPBe1-1884" value="утечка данных (K)" style="rounded=1;whiteSpace=wrap;html=1;shadow=0;labelBackgroundColor=none;strokeColor=none;strokeWidth=3;fillColor=#E6410A;fontFamily=Helvetica;fontSize=14;fontColor=#FFFFFF;align=center;spacing=5;fontStyle=0;arcSize=7;perimeterSpacing=2;" vertex="1" parent="1">
          <mxGeometry x="720" y="1045" width="160" height="40" as="geometry" />
        </mxCell>
        <mxCell id="BpoL6sSreTDUZBfIPBe1-1885" value="обесценивание данных (Н)" style="rounded=1;whiteSpace=wrap;html=1;shadow=0;labelBackgroundColor=none;strokeColor=none;strokeWidth=3;fillColor=#388C38;fontFamily=Helvetica;fontSize=14;fontColor=#FFFFFF;align=center;spacing=5;fontStyle=0;arcSize=7;perimeterSpacing=2;" vertex="1" parent="1">
          <mxGeometry x="720" y="1264.75" width="160" height="40" as="geometry" />
        </mxCell>
        <mxCell id="BpoL6sSreTDUZBfIPBe1-1886" value="&lt;p class=&quot;MsoNormal&quot;&gt;&lt;span style=&quot;font-size: 9pt; line-height: 107%; font-family: Helvetica, sans-serif; background: rgb(251, 251, 251);&quot;&gt;Обесцененные данные приводят к повышению&lt;br/&gt;накладных расходов на обслуживание&lt;/span&gt;&lt;br&gt;&lt;/p&gt;" style="text;whiteSpace=wrap;html=1;" vertex="1" parent="1">
          <mxGeometry x="892.5" y="1253" width="275" height="29.5" as="geometry" />
        </mxCell>
        <mxCell id="BpoL6sSreTDUZBfIPBe1-1889" value="&lt;span style=&quot;font-size: 9pt; line-height: 107%; font-family: Helvetica, sans-serif; background-image: initial; background-position: initial; background-size: initial; background-repeat: initial; background-attachment: initial; background-origin: initial; background-clip: initial;&quot;&gt;Утечка может привести к несанкционированному&lt;br/&gt;доступу, и утечке более критичных данных&lt;/span&gt;" style="text;whiteSpace=wrap;html=1;" vertex="1" parent="1">
          <mxGeometry x="887.5" y="1045" width="285" height="30" as="geometry" />
        </mxCell>
        <mxCell id="BpoL6sSreTDUZBfIPBe1-1891" value="" style="edgeStyle=none;rounded=1;jumpStyle=none;html=1;shadow=0;labelBackgroundColor=none;startArrow=none;startFill=0;endArrow=classic;endFill=1;jettySize=auto;orthogonalLoop=1;strokeColor=#E6410A;strokeWidth=3;fontFamily=Helvetica;fontSize=14;fontColor=#FFFFFF;spacing=5;entryX=0;entryY=0;entryDx=0;entryDy=0;" edge="1" parent="1" target="BpoL6sSreTDUZBfIPBe1-1884">
          <mxGeometry relative="1" as="geometry">
            <mxPoint x="640" y="910" as="sourcePoint" />
            <mxPoint x="846" y="950" as="targetPoint" />
          </mxGeometry>
        </mxCell>
        <mxCell id="BpoL6sSreTDUZBfIPBe1-1892" value="" style="edgeStyle=none;rounded=1;jumpStyle=none;html=1;shadow=0;labelBackgroundColor=none;startArrow=none;startFill=0;endArrow=classic;endFill=1;jettySize=auto;orthogonalLoop=1;strokeColor=#CE621B;strokeWidth=3;fontFamily=Helvetica;fontSize=14;fontColor=#FFFFFF;spacing=5;exitX=0.75;exitY=1;exitDx=0;exitDy=0;entryX=0;entryY=0.5;entryDx=0;entryDy=0;" edge="1" parent="1" source="BpoL6sSreTDUZBfIPBe1-1870" target="BpoL6sSreTDUZBfIPBe1-1881">
          <mxGeometry relative="1" as="geometry">
            <mxPoint x="610" y="929.5" as="sourcePoint" />
            <mxPoint x="766" y="954.5" as="targetPoint" />
          </mxGeometry>
        </mxCell>
        <mxCell id="BpoL6sSreTDUZBfIPBe1-1893" value="" style="edgeStyle=none;rounded=1;jumpStyle=none;html=1;shadow=0;labelBackgroundColor=none;startArrow=none;startFill=0;endArrow=classic;endFill=1;jettySize=auto;orthogonalLoop=1;strokeColor=#CE621B;strokeWidth=3;fontFamily=Helvetica;fontSize=14;fontColor=#FFFFFF;spacing=5;entryX=0;entryY=0.5;entryDx=0;entryDy=0;" edge="1" parent="1" target="BpoL6sSreTDUZBfIPBe1-1882">
          <mxGeometry relative="1" as="geometry">
            <mxPoint x="630" y="920" as="sourcePoint" />
            <mxPoint x="728" y="1050" as="targetPoint" />
          </mxGeometry>
        </mxCell>
        <mxCell id="BpoL6sSreTDUZBfIPBe1-1896" value="" style="edgeStyle=none;rounded=1;jumpStyle=none;html=1;shadow=0;labelBackgroundColor=none;startArrow=none;startFill=0;endArrow=classic;endFill=1;jettySize=auto;orthogonalLoop=1;strokeColor=#CE621B;strokeWidth=3;fontFamily=Helvetica;fontSize=14;fontColor=#FFFFFF;spacing=5;entryX=0;entryY=0.5;entryDx=0;entryDy=0;exitX=0.75;exitY=1;exitDx=0;exitDy=0;" edge="1" parent="1" source="BpoL6sSreTDUZBfIPBe1-1870" target="BpoL6sSreTDUZBfIPBe1-1883">
          <mxGeometry relative="1" as="geometry">
            <mxPoint x="640" y="930" as="sourcePoint" />
            <mxPoint x="728" y="1190" as="targetPoint" />
          </mxGeometry>
        </mxCell>
        <mxCell id="BpoL6sSreTDUZBfIPBe1-1897" value="" style="edgeStyle=none;rounded=1;jumpStyle=none;html=1;shadow=0;labelBackgroundColor=none;startArrow=none;startFill=0;endArrow=classic;endFill=1;jettySize=auto;orthogonalLoop=1;strokeColor=#388C38;strokeWidth=3;fontFamily=Helvetica;fontSize=14;fontColor=#FFFFFF;spacing=5;entryX=0;entryY=0.75;entryDx=0;entryDy=0;exitX=0.75;exitY=1;exitDx=0;exitDy=0;" edge="1" parent="1" source="BpoL6sSreTDUZBfIPBe1-1870" target="BpoL6sSreTDUZBfIPBe1-1885">
          <mxGeometry relative="1" as="geometry">
            <mxPoint x="650" y="940" as="sourcePoint" />
            <mxPoint x="738" y="1200" as="targetPoint" />
          </mxGeometry>
        </mxCell>
        <mxCell id="BpoL6sSreTDUZBfIPBe1-1898" value="&lt;span style=&quot;font-size:9.0pt;line-height:107%;&#xa;font-family:&amp;quot;Helvetica&amp;quot;,sans-serif;mso-fareast-font-family:Calibri;mso-fareast-theme-font:&#xa;minor-latin;color:black;background:#FBFBFB;mso-ansi-language:RU;mso-fareast-language:&#xa;EN-US;mso-bidi-language:AR-SA&quot;&gt;Потеря учетных данных может привести к простою, не&#xa;возможности выполнения функциональных обязанностей сотрудниками&lt;/span&gt;" style="text;whiteSpace=wrap;html=1;" vertex="1" parent="1">
          <mxGeometry x="892.5" y="1105" width="440" height="50" as="geometry" />
        </mxCell>
        <mxCell id="BpoL6sSreTDUZBfIPBe1-1899" value="&lt;span style=&quot;font-size:9.0pt;line-height:107%;&#xa;font-family:&amp;quot;Helvetica&amp;quot;,sans-serif;mso-fareast-font-family:Calibri;mso-fareast-theme-font:&#xa;minor-latin;color:black;background:#FBFBFB;mso-ansi-language:RU;mso-fareast-language:&#xa;EN-US;mso-bidi-language:AR-SA&quot;&gt;Искажение учетных данных может привести к простою,&#xa;не возможности выполнения функциональных обязанностей сотрудниками, получению больших&#xa;чем положено привилегий&lt;/span&gt;" style="text;whiteSpace=wrap;html=1;" vertex="1" parent="1">
          <mxGeometry x="892.5" y="1155" width="560" height="55" as="geometry" />
        </mxCell>
        <mxCell id="BpoL6sSreTDUZBfIPBe1-1900" value="&lt;span style=&quot;font-size:9.0pt;line-height:107%;&lt;br/&gt;font-family:&amp;quot;Helvetica&amp;quot;,sans-serif;mso-fareast-font-family:Calibri;mso-fareast-theme-font:&lt;br/&gt;minor-latin;color:black;background:#FBFBFB;mso-ansi-language:RU;mso-fareast-language:&lt;br/&gt;EN-US;mso-bidi-language:AR-SA&quot;&gt;Некачественные учетные данные могут привести к простою, не&lt;br&gt;возможности выполнения функциональных обязанностей сотрудниками&lt;/span&gt;" style="text;whiteSpace=wrap;html=1;" vertex="1" parent="1">
          <mxGeometry x="892.5" y="1214.75" width="440" height="50" as="geometry" />
        </mxCell>
        <mxCell id="BpoL6sSreTDUZBfIPBe1-1901" value="потеря данных (K)" style="rounded=1;whiteSpace=wrap;html=1;shadow=0;labelBackgroundColor=none;strokeColor=none;strokeWidth=3;fillColor=#E6410A;fontFamily=Helvetica;fontSize=14;fontColor=#FFFFFF;align=center;spacing=5;fontStyle=0;arcSize=7;perimeterSpacing=2;" vertex="1" parent="1">
          <mxGeometry x="-500" y="487.5" width="160" height="40" as="geometry" />
        </mxCell>
        <mxCell id="BpoL6sSreTDUZBfIPBe1-1902" value="искажение данных (K)" style="rounded=1;whiteSpace=wrap;html=1;shadow=0;labelBackgroundColor=none;strokeColor=none;strokeWidth=3;fillColor=#E6410A;fontFamily=Helvetica;fontSize=14;fontColor=#FFFFFF;align=center;spacing=5;fontStyle=0;arcSize=7;perimeterSpacing=2;" vertex="1" parent="1">
          <mxGeometry x="-500" y="536.5" width="160" height="40" as="geometry" />
        </mxCell>
        <mxCell id="BpoL6sSreTDUZBfIPBe1-1903" value="некачественные данные (K)" style="rounded=1;whiteSpace=wrap;html=1;shadow=0;labelBackgroundColor=none;strokeColor=none;strokeWidth=3;fillColor=#E6410A;fontFamily=Helvetica;fontSize=14;fontColor=#FFFFFF;align=center;spacing=5;fontStyle=0;arcSize=7;perimeterSpacing=2;" vertex="1" parent="1">
          <mxGeometry x="-500" y="584.5" width="160" height="40" as="geometry" />
        </mxCell>
        <mxCell id="BpoL6sSreTDUZBfIPBe1-1904" value="утечка данных (K)" style="rounded=1;whiteSpace=wrap;html=1;shadow=0;labelBackgroundColor=none;strokeColor=none;strokeWidth=3;fillColor=#E6410A;fontFamily=Helvetica;fontSize=14;fontColor=#FFFFFF;align=center;spacing=5;fontStyle=0;arcSize=7;perimeterSpacing=2;" vertex="1" parent="1">
          <mxGeometry x="-500" y="440" width="160" height="40" as="geometry" />
        </mxCell>
        <mxCell id="BpoL6sSreTDUZBfIPBe1-1905" value="обесценивание данных (Н)" style="rounded=1;whiteSpace=wrap;html=1;shadow=0;labelBackgroundColor=none;strokeColor=none;strokeWidth=3;fillColor=#388C38;fontFamily=Helvetica;fontSize=14;fontColor=#FFFFFF;align=center;spacing=5;fontStyle=0;arcSize=7;perimeterSpacing=2;" vertex="1" parent="1">
          <mxGeometry x="-500" y="640" width="160" height="40" as="geometry" />
        </mxCell>
        <mxCell id="BpoL6sSreTDUZBfIPBe1-1906" value="&lt;p class=&quot;MsoNormal&quot;&gt;&lt;span style=&quot;font-size: 9pt; line-height: 107%; font-family: Helvetica, sans-serif; background: rgb(251, 251, 251);&quot;&gt;Обесцененные данные приводят к повышению&lt;br/&gt;накладных расходов на обслуживание&lt;/span&gt;&lt;br&gt;&lt;/p&gt;" style="text;whiteSpace=wrap;html=1;" vertex="1" parent="1">
          <mxGeometry x="-850" y="624.5" width="335" height="45.5" as="geometry" />
        </mxCell>
        <mxCell id="BpoL6sSreTDUZBfIPBe1-1907" value="&lt;font face=&quot;Helvetica, sans-serif&quot;&gt;штрафы,значительные финансовые и репутационные потери&lt;/font&gt;" style="text;whiteSpace=wrap;html=1;" vertex="1" parent="1">
          <mxGeometry x="-850" y="589.5" width="340" height="30" as="geometry" />
        </mxCell>
        <mxCell id="BpoL6sSreTDUZBfIPBe1-1909" value="&lt;span style=&quot;line-height: 107%;&quot;&gt;штрафы,&lt;br&gt;значительные финансовые и репутационные потери&lt;/span&gt;" style="text;whiteSpace=wrap;html=1;" vertex="1" parent="1">
          <mxGeometry x="-835" y="440" width="330" height="30" as="geometry" />
        </mxCell>
        <mxCell id="BpoL6sSreTDUZBfIPBe1-1910" value="&lt;span style=&quot;line-height: 107%; font-family: Helvetica, sans-serif; background-image: initial; background-position: initial; background-size: initial; background-repeat: initial; background-attachment: initial; background-origin: initial; background-clip: initial;&quot;&gt;&lt;span style=&quot;line-height: 107%;&quot;&gt;штрафы,&lt;br&gt;значительные финансовые и репутационные потери&lt;/span&gt;&lt;br&gt;&lt;/span&gt;" style="text;whiteSpace=wrap;html=1;" vertex="1" parent="1">
          <mxGeometry x="-830" y="488" width="330" height="32.5" as="geometry" />
        </mxCell>
        <mxCell id="BpoL6sSreTDUZBfIPBe1-1923" value="потеря данных (З)" style="rounded=1;whiteSpace=wrap;html=1;shadow=0;labelBackgroundColor=none;strokeColor=none;strokeWidth=3;fillColor=#CE621B;fontFamily=Helvetica;fontSize=14;fontColor=#FFFFFF;align=center;spacing=5;fontStyle=0;arcSize=7;perimeterSpacing=2;" vertex="1" parent="1">
          <mxGeometry x="-490" y="100.5" width="160" height="40" as="geometry" />
        </mxCell>
        <mxCell id="BpoL6sSreTDUZBfIPBe1-1924" value="искажение данных (K)" style="rounded=1;whiteSpace=wrap;html=1;shadow=0;labelBackgroundColor=none;strokeColor=none;strokeWidth=3;fillColor=#E6410A;fontFamily=Helvetica;fontSize=14;fontColor=#FFFFFF;align=center;spacing=5;fontStyle=0;arcSize=7;perimeterSpacing=2;" vertex="1" parent="1">
          <mxGeometry x="-490" y="149.5" width="160" height="40" as="geometry" />
        </mxCell>
        <mxCell id="BpoL6sSreTDUZBfIPBe1-1925" value="некачественные данные (З)" style="rounded=1;whiteSpace=wrap;html=1;shadow=0;labelBackgroundColor=none;strokeColor=none;strokeWidth=3;fillColor=#CE621B;fontFamily=Helvetica;fontSize=14;fontColor=#FFFFFF;align=center;spacing=5;fontStyle=0;arcSize=7;perimeterSpacing=2;" vertex="1" parent="1">
          <mxGeometry x="-490" y="197.5" width="160" height="40" as="geometry" />
        </mxCell>
        <mxCell id="BpoL6sSreTDUZBfIPBe1-1926" value="утечка данных (K)" style="rounded=1;whiteSpace=wrap;html=1;shadow=0;labelBackgroundColor=none;strokeColor=none;strokeWidth=3;fillColor=#E6410A;fontFamily=Helvetica;fontSize=14;fontColor=#FFFFFF;align=center;spacing=5;fontStyle=0;arcSize=7;perimeterSpacing=2;" vertex="1" parent="1">
          <mxGeometry x="-490" y="53" width="160" height="40" as="geometry" />
        </mxCell>
        <mxCell id="BpoL6sSreTDUZBfIPBe1-1927" value="обесценивание данных (Н)" style="rounded=1;whiteSpace=wrap;html=1;shadow=0;labelBackgroundColor=none;strokeColor=none;strokeWidth=3;fillColor=#388C38;fontFamily=Helvetica;fontSize=14;fontColor=#FFFFFF;align=center;spacing=5;fontStyle=0;arcSize=7;perimeterSpacing=2;" vertex="1" parent="1">
          <mxGeometry x="-490" y="253" width="160" height="40" as="geometry" />
        </mxCell>
        <mxCell id="BpoL6sSreTDUZBfIPBe1-1928" value="&lt;p class=&quot;MsoNormal&quot;&gt;&lt;span style=&quot;font-size: 9pt; line-height: 107%; font-family: Helvetica, sans-serif; background: rgb(251, 251, 251);&quot;&gt;Обесцененные данные приводят к повышению&lt;br/&gt;накладных расходов на обслуживание&lt;/span&gt;&lt;br&gt;&lt;/p&gt;" style="text;whiteSpace=wrap;html=1;" vertex="1" parent="1">
          <mxGeometry x="-775" y="237.5" width="275" height="29.5" as="geometry" />
        </mxCell>
        <mxCell id="BpoL6sSreTDUZBfIPBe1-1929" value="&lt;span style=&quot;font-size: 9pt; line-height: 107%; font-family: Helvetica, sans-serif; background-image: initial; background-position: initial; background-size: initial; background-repeat: initial; background-attachment: initial; background-origin: initial; background-clip: initial;&quot;&gt;Ошибочные данные могут привести к деградации или&lt;br/&gt;полной неработоспособности системы и (или) подсистем&lt;/span&gt;" style="text;whiteSpace=wrap;html=1;" vertex="1" parent="1">
          <mxGeometry x="-840" y="202.5" width="340" height="30" as="geometry" />
        </mxCell>
        <mxCell id="BpoL6sSreTDUZBfIPBe1-1930" value="&lt;span style=&quot;font-size: 9pt; line-height: 107%; font-family: Helvetica, sans-serif; background-image: initial; background-position: initial; background-size: initial; background-repeat: initial; background-attachment: initial; background-origin: initial; background-clip: initial;&quot;&gt;Искажения могут привести к прямым убыткам,&amp;nbsp;&lt;/span&gt;&lt;div&gt;&lt;font face=&quot;Helvetica, sans-serif&quot;&gt;репутационным потерям.&lt;/font&gt;&lt;/div&gt;" style="text;whiteSpace=wrap;html=1;" vertex="1" parent="1">
          <mxGeometry x="-820" y="152.75" width="440" height="33.5" as="geometry" />
        </mxCell>
        <mxCell id="BpoL6sSreTDUZBfIPBe1-1931" value="&lt;span style=&quot;font-size: 9pt; line-height: 107%; font-family: Helvetica, sans-serif; background-image: initial; background-position: initial; background-size: initial; background-repeat: initial; background-attachment: initial; background-origin: initial; background-clip: initial;&quot;&gt;Утечка может привести к несанкционированному&lt;br/&gt;доступу, и утечке более критичных данных&lt;/span&gt;" style="text;whiteSpace=wrap;html=1;" vertex="1" parent="1">
          <mxGeometry x="-795" y="53" width="285" height="30" as="geometry" />
        </mxCell>
        <mxCell id="BpoL6sSreTDUZBfIPBe1-1932" value="&lt;span style=&quot;font-size: 9pt; line-height: 107%; font-family: Helvetica, sans-serif; background-image: initial; background-position: initial; background-size: initial; background-repeat: initial; background-attachment: initial; background-origin: initial; background-clip: initial;&quot;&gt;Потеря&amp;nbsp; данных может привести к&lt;br&gt;деградации или полной неработоспособности системы и (или) подсистем&lt;/span&gt;" style="text;whiteSpace=wrap;html=1;" vertex="1" parent="1">
          <mxGeometry x="-820" y="101" width="330" height="32.5" as="geometry" />
        </mxCell>
        <mxCell id="BpoL6sSreTDUZBfIPBe1-1933" value="&lt;span style=&quot;font-size:11.0pt;line-height:107%;&lt;br/&gt;font-family:&amp;quot;Calibri&amp;quot;,sans-serif;mso-ascii-theme-font:minor-latin;mso-fareast-font-family:&lt;br/&gt;Calibri;mso-fareast-theme-font:minor-latin;mso-hansi-theme-font:minor-latin;&lt;br/&gt;mso-bidi-font-family:&amp;quot;Times New Roman&amp;quot;;mso-bidi-theme-font:minor-bidi;&lt;br/&gt;mso-ansi-language:RU;mso-fareast-language:EN-US;mso-bidi-language:AR-SA&quot;&gt;Информация&lt;br/&gt;о сделках с недвижимостью&lt;/span&gt;" style="rounded=1;whiteSpace=wrap;html=1;shadow=0;labelBackgroundColor=none;strokeColor=none;strokeWidth=3;fillColor=#f5af58;fontFamily=Helvetica;fontSize=14;fontColor=#FFFFFF;align=center;spacing=5;arcSize=7;perimeterSpacing=2;" vertex="1" parent="1">
          <mxGeometry x="1480" y="-44" width="150" height="60" as="geometry" />
        </mxCell>
        <mxCell id="BpoL6sSreTDUZBfIPBe1-1934" value="&lt;span style=&quot;font-size:11.0pt;line-height:107%;&lt;br/&gt;font-family:&amp;quot;Calibri&amp;quot;,sans-serif;mso-ascii-theme-font:minor-latin;mso-fareast-font-family:&lt;br/&gt;Calibri;mso-fareast-theme-font:minor-latin;mso-hansi-theme-font:minor-latin;&lt;br/&gt;mso-bidi-font-family:&amp;quot;Times New Roman&amp;quot;;mso-bidi-theme-font:minor-bidi;&lt;br/&gt;mso-ansi-language:RU;mso-fareast-language:EN-US;mso-bidi-language:AR-SA&quot;&gt;данные&lt;br/&gt;системы «Умный дом»&lt;/span&gt;" style="rounded=1;whiteSpace=wrap;html=1;shadow=0;labelBackgroundColor=none;strokeColor=none;strokeWidth=3;fillColor=#f5af58;fontFamily=Helvetica;fontSize=14;fontColor=#FFFFFF;align=center;spacing=5;arcSize=7;perimeterSpacing=2;" vertex="1" parent="1">
          <mxGeometry x="310" y="-267" width="150" height="60" as="geometry" />
        </mxCell>
        <mxCell id="BpoL6sSreTDUZBfIPBe1-1935" value="потеря данных (K)" style="rounded=1;whiteSpace=wrap;html=1;shadow=0;labelBackgroundColor=none;strokeColor=none;strokeWidth=3;fillColor=#E6410A;fontFamily=Helvetica;fontSize=14;fontColor=#FFFFFF;align=center;spacing=5;fontStyle=0;arcSize=7;perimeterSpacing=2;" vertex="1" parent="1">
          <mxGeometry x="-183" y="-299.5" width="160" height="40" as="geometry" />
        </mxCell>
        <mxCell id="BpoL6sSreTDUZBfIPBe1-1936" value="искажение данных (K)" style="rounded=1;whiteSpace=wrap;html=1;shadow=0;labelBackgroundColor=none;strokeColor=none;strokeWidth=3;fillColor=#E6410A;fontFamily=Helvetica;fontSize=14;fontColor=#FFFFFF;align=center;spacing=5;fontStyle=0;arcSize=7;perimeterSpacing=2;" vertex="1" parent="1">
          <mxGeometry x="-183" y="-250.5" width="160" height="40" as="geometry" />
        </mxCell>
        <mxCell id="BpoL6sSreTDUZBfIPBe1-1937" value="некачественные данные (K)" style="rounded=1;whiteSpace=wrap;html=1;shadow=0;labelBackgroundColor=none;strokeColor=none;strokeWidth=3;fillColor=#E6410A;fontFamily=Helvetica;fontSize=14;fontColor=#FFFFFF;align=center;spacing=5;fontStyle=0;arcSize=7;perimeterSpacing=2;" vertex="1" parent="1">
          <mxGeometry x="-183" y="-202.5" width="160" height="40" as="geometry" />
        </mxCell>
        <mxCell id="BpoL6sSreTDUZBfIPBe1-1938" value="утечка данных (K)" style="rounded=1;whiteSpace=wrap;html=1;shadow=0;labelBackgroundColor=none;strokeColor=none;strokeWidth=3;fillColor=#E6410A;fontFamily=Helvetica;fontSize=14;fontColor=#FFFFFF;align=center;spacing=5;fontStyle=0;arcSize=7;perimeterSpacing=2;" vertex="1" parent="1">
          <mxGeometry x="-183" y="-347" width="160" height="40" as="geometry" />
        </mxCell>
        <mxCell id="BpoL6sSreTDUZBfIPBe1-1939" value="обесценивание данных (Н)" style="rounded=1;whiteSpace=wrap;html=1;shadow=0;labelBackgroundColor=none;strokeColor=none;strokeWidth=3;fillColor=#388C38;fontFamily=Helvetica;fontSize=14;fontColor=#FFFFFF;align=center;spacing=5;fontStyle=0;arcSize=7;perimeterSpacing=2;" vertex="1" parent="1">
          <mxGeometry x="-183" y="-147" width="160" height="40" as="geometry" />
        </mxCell>
        <mxCell id="BpoL6sSreTDUZBfIPBe1-1940" value="&lt;p class=&quot;MsoNormal&quot;&gt;&lt;span style=&quot;font-size: 9pt; line-height: 107%; font-family: Helvetica, sans-serif; background: rgb(251, 251, 251);&quot;&gt;Обесцененные данные приводят к повышению&lt;br/&gt;накладных расходов на обслуживание&lt;/span&gt;&lt;br&gt;&lt;/p&gt;" style="text;whiteSpace=wrap;html=1;" vertex="1" parent="1">
          <mxGeometry x="-488" y="-147" width="275" height="29.5" as="geometry" />
        </mxCell>
        <mxCell id="BpoL6sSreTDUZBfIPBe1-1941" value="&lt;font face=&quot;Helvetica, sans-serif&quot;&gt;штрафы,значительные финансовые и репутационные потери&lt;/font&gt;" style="text;whiteSpace=wrap;html=1;" vertex="1" parent="1">
          <mxGeometry x="-533" y="-197.5" width="340" height="30" as="geometry" />
        </mxCell>
        <mxCell id="BpoL6sSreTDUZBfIPBe1-1942" value="&lt;font face=&quot;Helvetica, sans-serif&quot;&gt;штрафы,значительные финансовые и репутационные потери&lt;/font&gt;" style="text;whiteSpace=wrap;html=1;" vertex="1" parent="1">
          <mxGeometry x="-553" y="-244" width="440" height="33.5" as="geometry" />
        </mxCell>
        <mxCell id="BpoL6sSreTDUZBfIPBe1-1943" value="&lt;font face=&quot;Helvetica, sans-serif&quot;&gt;штрафы,значительные финансовые и репутационные потери&lt;/font&gt;" style="text;whiteSpace=wrap;html=1;" vertex="1" parent="1">
          <mxGeometry x="-488" y="-347" width="285" height="30" as="geometry" />
        </mxCell>
        <mxCell id="BpoL6sSreTDUZBfIPBe1-1944" value="&lt;font face=&quot;Helvetica, sans-serif&quot;&gt;штрафы,значительные финансовые и репутационные потери&lt;/font&gt;" style="text;whiteSpace=wrap;html=1;" vertex="1" parent="1">
          <mxGeometry x="-513" y="-299" width="330" height="32.5" as="geometry" />
        </mxCell>
        <mxCell id="BpoL6sSreTDUZBfIPBe1-1945" value="потеря данных (З)" style="rounded=1;whiteSpace=wrap;html=1;shadow=0;labelBackgroundColor=none;strokeColor=none;strokeWidth=3;fillColor=#CE621B;fontFamily=Helvetica;fontSize=14;fontColor=#FFFFFF;align=center;spacing=5;fontStyle=0;arcSize=7;perimeterSpacing=2;" vertex="1" parent="1">
          <mxGeometry x="723" y="-415" width="160" height="40" as="geometry" />
        </mxCell>
        <mxCell id="BpoL6sSreTDUZBfIPBe1-1946" value="искажение данных (К&lt;span style=&quot;background-color: initial;&quot;&gt;)&lt;/span&gt;" style="rounded=1;whiteSpace=wrap;html=1;shadow=0;labelBackgroundColor=none;strokeColor=none;strokeWidth=3;fillColor=#E6410A;fontFamily=Helvetica;fontSize=14;fontColor=#FFFFFF;align=center;spacing=5;fontStyle=0;arcSize=7;perimeterSpacing=2;" vertex="1" parent="1">
          <mxGeometry x="723" y="-360" width="160" height="40" as="geometry" />
        </mxCell>
        <mxCell id="BpoL6sSreTDUZBfIPBe1-1947" value="некачественные данные (З)" style="rounded=1;whiteSpace=wrap;html=1;shadow=0;labelBackgroundColor=none;strokeColor=none;strokeWidth=3;fillColor=#CE621B;fontFamily=Helvetica;fontSize=14;fontColor=#FFFFFF;align=center;spacing=5;fontStyle=0;arcSize=7;perimeterSpacing=2;" vertex="1" parent="1">
          <mxGeometry x="723" y="-307" width="160" height="40" as="geometry" />
        </mxCell>
        <mxCell id="BpoL6sSreTDUZBfIPBe1-1948" value="утечка данных (K)" style="rounded=1;whiteSpace=wrap;html=1;shadow=0;labelBackgroundColor=none;strokeColor=none;strokeWidth=3;fillColor=#E6410A;fontFamily=Helvetica;fontSize=14;fontColor=#FFFFFF;align=center;spacing=5;fontStyle=0;arcSize=7;perimeterSpacing=2;" vertex="1" parent="1">
          <mxGeometry x="723" y="-475" width="160" height="35" as="geometry" />
        </mxCell>
        <mxCell id="BpoL6sSreTDUZBfIPBe1-1949" value="обесценивание данных (Н)" style="rounded=1;whiteSpace=wrap;html=1;shadow=0;labelBackgroundColor=none;strokeColor=none;strokeWidth=3;fillColor=#388C38;fontFamily=Helvetica;fontSize=14;fontColor=#FFFFFF;align=center;spacing=5;fontStyle=0;arcSize=7;perimeterSpacing=2;" vertex="1" parent="1">
          <mxGeometry x="723" y="-255.25" width="160" height="40" as="geometry" />
        </mxCell>
        <mxCell id="BpoL6sSreTDUZBfIPBe1-1950" value="&lt;p class=&quot;MsoNormal&quot;&gt;&lt;span style=&quot;font-size: 9pt; line-height: 107%; font-family: Helvetica, sans-serif; background: rgb(251, 251, 251);&quot;&gt;Обесцененные данные приводят к повышению&lt;br/&gt;накладных расходов на обслуживание&lt;/span&gt;&lt;br&gt;&lt;/p&gt;" style="text;whiteSpace=wrap;html=1;" vertex="1" parent="1">
          <mxGeometry x="895.5" y="-267" width="275" height="29.5" as="geometry" />
        </mxCell>
        <mxCell id="BpoL6sSreTDUZBfIPBe1-1951" value="&lt;span style=&quot;font-size: 9pt; line-height: 107%; font-family: Helvetica, sans-serif; background-image: initial; background-position: initial; background-size: initial; background-repeat: initial; background-attachment: initial; background-origin: initial; background-clip: initial;&quot;&gt;Утечка может привести к несанкционированному&lt;br&gt;доступу, и утечке более критичных данных,&amp;nbsp;штрафы,значительные финансовые и репутационные потери&lt;/span&gt;" style="text;whiteSpace=wrap;html=1;" vertex="1" parent="1">
          <mxGeometry x="890.5" y="-490" width="529.5" height="50" as="geometry" />
        </mxCell>
        <mxCell id="BpoL6sSreTDUZBfIPBe1-1952" value="&lt;span style=&quot;font-size:9.0pt;line-height:107%;&lt;br/&gt;font-family:&amp;quot;Helvetica&amp;quot;,sans-serif;mso-fareast-font-family:Calibri;mso-fareast-theme-font:&lt;br/&gt;minor-latin;color:black;background:#FBFBFB;mso-ansi-language:RU;mso-fareast-language:&lt;br/&gt;EN-US;mso-bidi-language:AR-SA&quot;&gt;Потеря учетных данных может привести к простою, не&lt;br&gt;возможности плучения сервиса,&amp;nbsp;репутационные потери&lt;/span&gt;" style="text;whiteSpace=wrap;html=1;" vertex="1" parent="1">
          <mxGeometry x="895.5" y="-415" width="440" height="50" as="geometry" />
        </mxCell>
        <mxCell id="BpoL6sSreTDUZBfIPBe1-1953" value="&lt;span style=&quot;background-color: rgb(251, 251, 251);&quot;&gt;штрафы,значительные финансовые и репутационные потери&lt;/span&gt;" style="text;whiteSpace=wrap;html=1;" vertex="1" parent="1">
          <mxGeometry x="895.5" y="-354.5" width="560" height="45" as="geometry" />
        </mxCell>
        <mxCell id="BpoL6sSreTDUZBfIPBe1-1954" value="&lt;span style=&quot;background-color: rgb(251, 251, 251);&quot;&gt;Потеря учетных данных может привести к простою, не&lt;/span&gt;&lt;br&gt;&lt;span style=&quot;background-color: rgb(251, 251, 251);&quot;&gt;возможности плучения сервиса,&amp;nbsp;репутационные потери&lt;/span&gt;" style="text;whiteSpace=wrap;html=1;" vertex="1" parent="1">
          <mxGeometry x="895.5" y="-305.25" width="440" height="50" as="geometry" />
        </mxCell>
        <mxCell id="BpoL6sSreTDUZBfIPBe1-1956" value="&lt;span style=&quot;font-size:11.0pt;line-height:107%;&lt;br/&gt;font-family:&amp;quot;Calibri&amp;quot;,sans-serif;mso-ascii-theme-font:minor-latin;mso-fareast-font-family:&lt;br/&gt;Calibri;mso-fareast-theme-font:minor-latin;mso-hansi-theme-font:minor-latin;&lt;br/&gt;mso-bidi-font-family:&amp;quot;Times New Roman&amp;quot;;mso-bidi-theme-font:minor-bidi;&lt;br/&gt;mso-ansi-language:RU;mso-fareast-language:EN-US;mso-bidi-language:AR-SA&quot;&gt;Финансовые&lt;br/&gt;данные компании&lt;/span&gt;" style="rounded=1;whiteSpace=wrap;html=1;shadow=0;labelBackgroundColor=none;strokeColor=none;strokeWidth=3;fillColor=#f5af58;fontFamily=Helvetica;fontSize=14;fontColor=#FFFFFF;align=center;spacing=5;arcSize=7;perimeterSpacing=2;" vertex="1" parent="1">
          <mxGeometry x="1480" y="-160" width="150" height="60" as="geometry" />
        </mxCell>
        <mxCell id="BpoL6sSreTDUZBfIPBe1-1957" value="" style="edgeStyle=none;rounded=1;jumpStyle=none;html=1;shadow=0;labelBackgroundColor=none;startArrow=none;startFill=0;endArrow=classic;endFill=1;jettySize=auto;orthogonalLoop=1;strokeColor=#F08705;strokeWidth=3;fontFamily=Helvetica;fontSize=14;fontColor=#FFFFFF;spacing=5;entryX=0;entryY=0.75;entryDx=0;entryDy=0;exitX=0.75;exitY=0;exitDx=0;exitDy=0;" edge="1" parent="1" source="1764" target="BpoL6sSreTDUZBfIPBe1-1956">
          <mxGeometry relative="1" as="geometry">
            <mxPoint x="662" y="119" as="sourcePoint" />
            <mxPoint x="968" y="-18" as="targetPoint" />
          </mxGeometry>
        </mxCell>
        <mxCell id="BpoL6sSreTDUZBfIPBe1-1958" value="" style="edgeStyle=none;rounded=1;jumpStyle=none;html=1;shadow=0;labelBackgroundColor=none;startArrow=none;startFill=0;endArrow=classic;endFill=1;jettySize=auto;orthogonalLoop=1;strokeColor=#F08705;strokeWidth=3;fontFamily=Helvetica;fontSize=14;fontColor=#FFFFFF;spacing=5;entryX=0.5;entryY=1;entryDx=0;entryDy=0;exitX=0.25;exitY=0;exitDx=0;exitDy=0;" edge="1" parent="1" source="1764" target="BpoL6sSreTDUZBfIPBe1-1934">
          <mxGeometry relative="1" as="geometry">
            <mxPoint x="570" y="200" as="sourcePoint" />
            <mxPoint x="370" y="-28" as="targetPoint" />
          </mxGeometry>
        </mxCell>
        <mxCell id="BpoL6sSreTDUZBfIPBe1-1959" value="" style="edgeStyle=none;rounded=1;jumpStyle=none;html=1;shadow=0;labelBackgroundColor=none;startArrow=none;startFill=0;endArrow=classic;endFill=1;jettySize=auto;orthogonalLoop=1;strokeColor=#F08705;strokeWidth=3;fontFamily=Helvetica;fontSize=14;fontColor=#FFFFFF;spacing=5;entryX=0.5;entryY=1;entryDx=0;entryDy=0;exitX=0.5;exitY=0;exitDx=0;exitDy=0;" edge="1" parent="1" source="1764" target="1765">
          <mxGeometry relative="1" as="geometry">
            <mxPoint x="562" y="219" as="sourcePoint" />
            <mxPoint x="355" y="-388" as="targetPoint" />
          </mxGeometry>
        </mxCell>
        <mxCell id="BpoL6sSreTDUZBfIPBe1-1960" value="" style="edgeStyle=none;rounded=1;jumpStyle=none;html=1;shadow=0;labelBackgroundColor=none;startArrow=none;startFill=0;endArrow=classic;endFill=1;jettySize=auto;orthogonalLoop=1;strokeColor=#388C38;strokeWidth=3;fontFamily=Helvetica;fontSize=14;fontColor=#FFFFFF;spacing=5;entryX=0;entryY=1;entryDx=0;entryDy=0;" edge="1" parent="1" target="BpoL6sSreTDUZBfIPBe1-1949">
          <mxGeometry relative="1" as="geometry">
            <mxPoint x="670" y="-162" as="sourcePoint" />
            <mxPoint x="132" y="990" as="targetPoint" />
          </mxGeometry>
        </mxCell>
        <mxCell id="BpoL6sSreTDUZBfIPBe1-1961" value="" style="edgeStyle=none;rounded=1;jumpStyle=none;html=1;shadow=0;labelBackgroundColor=none;startArrow=none;startFill=0;endArrow=classic;endFill=1;jettySize=auto;orthogonalLoop=1;strokeColor=#388C38;strokeWidth=3;fontFamily=Helvetica;fontSize=14;fontColor=#FFFFFF;spacing=5;entryX=1;entryY=0.25;entryDx=0;entryDy=0;exitX=0;exitY=1;exitDx=0;exitDy=0;" edge="1" parent="1" source="1754" target="BpoL6sSreTDUZBfIPBe1-1905">
          <mxGeometry relative="1" as="geometry">
            <mxPoint x="641" y="922" as="sourcePoint" />
            <mxPoint x="728" y="1306" as="targetPoint" />
          </mxGeometry>
        </mxCell>
        <mxCell id="BpoL6sSreTDUZBfIPBe1-1962" value="" style="edgeStyle=none;rounded=1;jumpStyle=none;html=1;shadow=0;labelBackgroundColor=none;startArrow=none;startFill=0;endArrow=classic;endFill=1;jettySize=auto;orthogonalLoop=1;strokeColor=#388C38;strokeWidth=3;fontFamily=Helvetica;fontSize=14;fontColor=#FFFFFF;spacing=5;entryX=1;entryY=0.75;entryDx=0;entryDy=0;exitX=0;exitY=1;exitDx=0;exitDy=0;" edge="1" parent="1" source="1756" target="BpoL6sSreTDUZBfIPBe1-1927">
          <mxGeometry relative="1" as="geometry">
            <mxPoint x="-182" y="249" as="sourcePoint" />
            <mxPoint x="-328" y="296" as="targetPoint" />
          </mxGeometry>
        </mxCell>
        <mxCell id="BpoL6sSreTDUZBfIPBe1-1964" value="" style="edgeStyle=none;rounded=1;jumpStyle=none;html=1;shadow=0;labelBackgroundColor=none;startArrow=none;startFill=0;endArrow=classic;endFill=1;jettySize=auto;orthogonalLoop=1;strokeColor=#E6410A;strokeWidth=3;fontFamily=Helvetica;fontSize=14;fontColor=#FFFFFF;spacing=5;exitX=0;exitY=0;exitDx=0;exitDy=0;entryX=1;entryY=0.5;entryDx=0;entryDy=0;" edge="1" parent="1" source="1756" target="BpoL6sSreTDUZBfIPBe1-1926">
          <mxGeometry relative="1" as="geometry">
            <mxPoint x="-269" y="-59.5" as="sourcePoint" />
            <mxPoint x="-475" y="-43.5" as="targetPoint" />
          </mxGeometry>
        </mxCell>
        <mxCell id="BpoL6sSreTDUZBfIPBe1-1965" value="" style="edgeStyle=none;rounded=1;jumpStyle=none;html=1;shadow=0;labelBackgroundColor=none;startArrow=none;startFill=0;endArrow=classic;endFill=1;jettySize=auto;orthogonalLoop=1;strokeColor=#E6410A;strokeWidth=3;fontFamily=Helvetica;fontSize=14;fontColor=#FFFFFF;spacing=5;exitX=0;exitY=0.5;exitDx=0;exitDy=0;entryX=1;entryY=0.5;entryDx=0;entryDy=0;" edge="1" parent="1" source="1756" target="BpoL6sSreTDUZBfIPBe1-1924">
          <mxGeometry relative="1" as="geometry">
            <mxPoint x="-192" y="129" as="sourcePoint" />
            <mxPoint x="-318" y="83" as="targetPoint" />
            <Array as="points">
              <mxPoint x="-260" y="160" />
            </Array>
          </mxGeometry>
        </mxCell>
        <mxCell id="BpoL6sSreTDUZBfIPBe1-1966" value="" style="edgeStyle=none;rounded=1;jumpStyle=none;html=1;shadow=0;labelBackgroundColor=none;startArrow=none;startFill=0;endArrow=classic;endFill=1;jettySize=auto;orthogonalLoop=1;strokeColor=#CE621B;strokeWidth=3;fontFamily=Helvetica;fontSize=14;fontColor=#FFFFFF;spacing=5;exitX=0;exitY=0.75;exitDx=0;exitDy=0;entryX=1;entryY=0.5;entryDx=0;entryDy=0;" edge="1" parent="1" source="1756" target="BpoL6sSreTDUZBfIPBe1-1925">
          <mxGeometry relative="1" as="geometry">
            <mxPoint x="802" y="996" as="sourcePoint" />
            <mxPoint x="958" y="1021" as="targetPoint" />
          </mxGeometry>
        </mxCell>
        <mxCell id="BpoL6sSreTDUZBfIPBe1-1967" value="" style="edgeStyle=none;rounded=1;jumpStyle=none;html=1;shadow=0;labelBackgroundColor=none;startArrow=none;startFill=0;endArrow=classic;endFill=1;jettySize=auto;orthogonalLoop=1;strokeColor=#CE621B;strokeWidth=3;fontFamily=Helvetica;fontSize=14;fontColor=#FFFFFF;spacing=5;exitX=0;exitY=0.25;exitDx=0;exitDy=0;entryX=1;entryY=0.5;entryDx=0;entryDy=0;" edge="1" parent="1" source="1756" target="BpoL6sSreTDUZBfIPBe1-1923">
          <mxGeometry relative="1" as="geometry">
            <mxPoint x="802" y="996" as="sourcePoint" />
            <mxPoint x="958" y="1021" as="targetPoint" />
          </mxGeometry>
        </mxCell>
        <mxCell id="BpoL6sSreTDUZBfIPBe1-1968" value="штрафы,значительные финансовые и репутационные потери" style="text;whiteSpace=wrap;" vertex="1" parent="1">
          <mxGeometry x="-860" y="544.5" width="360" height="40" as="geometry" />
        </mxCell>
        <mxCell id="BpoL6sSreTDUZBfIPBe1-1969" value="" style="edgeStyle=none;rounded=1;jumpStyle=none;html=1;shadow=0;labelBackgroundColor=none;startArrow=none;startFill=0;endArrow=classic;endFill=1;jettySize=auto;orthogonalLoop=1;strokeColor=#E6410A;strokeWidth=3;fontFamily=Helvetica;fontSize=14;fontColor=#FFFFFF;spacing=5;exitX=0;exitY=0.25;exitDx=0;exitDy=0;entryX=1;entryY=0.5;entryDx=0;entryDy=0;" edge="1" parent="1" source="1754" target="BpoL6sSreTDUZBfIPBe1-1902">
          <mxGeometry relative="1" as="geometry">
            <mxPoint x="-192" y="161" as="sourcePoint" />
            <mxPoint x="-318" y="180" as="targetPoint" />
            <Array as="points" />
          </mxGeometry>
        </mxCell>
        <mxCell id="BpoL6sSreTDUZBfIPBe1-1970" value="" style="edgeStyle=none;rounded=1;jumpStyle=none;html=1;shadow=0;labelBackgroundColor=none;startArrow=none;startFill=0;endArrow=classic;endFill=1;jettySize=auto;orthogonalLoop=1;strokeColor=#E6410A;strokeWidth=3;fontFamily=Helvetica;fontSize=14;fontColor=#FFFFFF;spacing=5;entryX=1;entryY=0.75;entryDx=0;entryDy=0;" edge="1" parent="1" target="BpoL6sSreTDUZBfIPBe1-1903">
          <mxGeometry relative="1" as="geometry">
            <mxPoint x="-192" y="580" as="sourcePoint" />
            <mxPoint x="-308" y="190" as="targetPoint" />
            <Array as="points" />
          </mxGeometry>
        </mxCell>
        <mxCell id="BpoL6sSreTDUZBfIPBe1-1973" value="" style="edgeStyle=none;rounded=1;jumpStyle=none;html=1;shadow=0;labelBackgroundColor=none;startArrow=none;startFill=0;endArrow=classic;endFill=1;jettySize=auto;orthogonalLoop=1;strokeColor=#E6410A;strokeWidth=3;fontFamily=Helvetica;fontSize=14;fontColor=#FFFFFF;spacing=5;exitX=0.25;exitY=0;exitDx=0;exitDy=0;entryX=1;entryY=0.25;entryDx=0;entryDy=0;" edge="1" parent="1" source="1754" target="BpoL6sSreTDUZBfIPBe1-1901">
          <mxGeometry relative="1" as="geometry">
            <mxPoint x="-182" y="548" as="sourcePoint" />
            <mxPoint x="-328" y="567" as="targetPoint" />
            <Array as="points" />
          </mxGeometry>
        </mxCell>
        <mxCell id="BpoL6sSreTDUZBfIPBe1-1974" value="" style="edgeStyle=none;rounded=1;jumpStyle=none;html=1;shadow=0;labelBackgroundColor=none;startArrow=none;startFill=0;endArrow=classic;endFill=1;jettySize=auto;orthogonalLoop=1;strokeColor=#E6410A;strokeWidth=3;fontFamily=Helvetica;fontSize=14;fontColor=#FFFFFF;spacing=5;exitX=0.5;exitY=0;exitDx=0;exitDy=0;entryX=1;entryY=0.5;entryDx=0;entryDy=0;" edge="1" parent="1" source="1754" target="BpoL6sSreTDUZBfIPBe1-1904">
          <mxGeometry relative="1" as="geometry">
            <mxPoint x="-143" y="548" as="sourcePoint" />
            <mxPoint x="-328" y="507" as="targetPoint" />
            <Array as="points" />
          </mxGeometry>
        </mxCell>
        <mxCell id="BpoL6sSreTDUZBfIPBe1-1975" value="" style="edgeStyle=none;rounded=1;jumpStyle=none;html=1;shadow=0;labelBackgroundColor=none;startArrow=none;startFill=0;endArrow=classic;endFill=1;jettySize=auto;orthogonalLoop=1;strokeColor=#388C38;strokeWidth=3;fontFamily=Helvetica;fontSize=14;fontColor=#FFFFFF;spacing=5;exitX=0;exitY=0.75;exitDx=0;exitDy=0;entryX=1;entryY=0.75;entryDx=0;entryDy=0;" edge="1" parent="1" source="1769" target="BpoL6sSreTDUZBfIPBe1-1939">
          <mxGeometry relative="1" as="geometry">
            <mxPoint x="712" y="-152" as="sourcePoint" />
            <mxPoint x="731" y="-203" as="targetPoint" />
          </mxGeometry>
        </mxCell>
        <mxCell id="BpoL6sSreTDUZBfIPBe1-1977" value="" style="edgeStyle=none;rounded=1;jumpStyle=none;html=1;shadow=0;labelBackgroundColor=none;startArrow=none;startFill=0;endArrow=classic;endFill=1;jettySize=auto;orthogonalLoop=1;strokeColor=#388C38;strokeWidth=3;fontFamily=Helvetica;fontSize=14;fontColor=#FFFFFF;spacing=5;exitX=0;exitY=1;exitDx=0;exitDy=0;entryX=1;entryY=0.75;entryDx=0;entryDy=0;" edge="1" parent="1" source="BpoL6sSreTDUZBfIPBe1-1934" target="BpoL6sSreTDUZBfIPBe1-1939">
          <mxGeometry relative="1" as="geometry">
            <mxPoint x="278" y="-34" as="sourcePoint" />
            <mxPoint x="222" y="-29" as="targetPoint" />
          </mxGeometry>
        </mxCell>
        <mxCell id="BpoL6sSreTDUZBfIPBe1-1978" value="" style="edgeStyle=none;rounded=1;jumpStyle=none;html=1;shadow=0;labelBackgroundColor=none;startArrow=none;startFill=0;endArrow=classic;endFill=1;jettySize=auto;orthogonalLoop=1;strokeColor=#388C38;strokeWidth=3;fontFamily=Helvetica;fontSize=14;fontColor=#FFFFFF;spacing=5;exitX=0;exitY=1;exitDx=0;exitDy=0;entryX=1;entryY=0.75;entryDx=0;entryDy=0;" edge="1" parent="1" source="1765" target="BpoL6sSreTDUZBfIPBe1-1939">
          <mxGeometry relative="1" as="geometry">
            <mxPoint x="278" y="-34" as="sourcePoint" />
            <mxPoint x="222" y="-29" as="targetPoint" />
          </mxGeometry>
        </mxCell>
        <mxCell id="BpoL6sSreTDUZBfIPBe1-1979" value="" style="edgeStyle=none;rounded=1;jumpStyle=none;html=1;shadow=0;labelBackgroundColor=none;startArrow=none;startFill=0;endArrow=classic;endFill=1;jettySize=auto;orthogonalLoop=1;strokeColor=#E6410A;strokeWidth=3;fontFamily=Helvetica;fontSize=14;fontColor=#FFFFFF;spacing=5;exitX=0;exitY=0.25;exitDx=0;exitDy=0;entryX=1;entryY=0.5;entryDx=0;entryDy=0;" edge="1" parent="1" source="1769" target="BpoL6sSreTDUZBfIPBe1-1937">
          <mxGeometry relative="1" as="geometry">
            <mxPoint x="-192" y="129" as="sourcePoint" />
            <mxPoint x="-318" y="83" as="targetPoint" />
          </mxGeometry>
        </mxCell>
        <mxCell id="BpoL6sSreTDUZBfIPBe1-1980" value="" style="edgeStyle=none;rounded=1;jumpStyle=none;html=1;shadow=0;labelBackgroundColor=none;startArrow=none;startFill=0;endArrow=classic;endFill=1;jettySize=auto;orthogonalLoop=1;strokeColor=#E6410A;strokeWidth=3;fontFamily=Helvetica;fontSize=14;fontColor=#FFFFFF;spacing=5;exitX=0;exitY=0.75;exitDx=0;exitDy=0;" edge="1" parent="1" source="BpoL6sSreTDUZBfIPBe1-1934">
          <mxGeometry relative="1" as="geometry">
            <mxPoint x="268" y="-76" as="sourcePoint" />
            <mxPoint x="-20" y="-180" as="targetPoint" />
          </mxGeometry>
        </mxCell>
        <mxCell id="BpoL6sSreTDUZBfIPBe1-1981" value="" style="edgeStyle=none;rounded=1;jumpStyle=none;html=1;shadow=0;labelBackgroundColor=none;startArrow=none;startFill=0;endArrow=classic;endFill=1;jettySize=auto;orthogonalLoop=1;strokeColor=#E6410A;strokeWidth=3;fontFamily=Helvetica;fontSize=14;fontColor=#FFFFFF;spacing=5;exitX=0;exitY=0.75;exitDx=0;exitDy=0;" edge="1" parent="1" source="1765">
          <mxGeometry relative="1" as="geometry">
            <mxPoint x="268" y="-76" as="sourcePoint" />
            <mxPoint x="-20" y="-180" as="targetPoint" />
          </mxGeometry>
        </mxCell>
        <mxCell id="BpoL6sSreTDUZBfIPBe1-1982" value="" style="edgeStyle=none;rounded=1;jumpStyle=none;html=1;shadow=0;labelBackgroundColor=none;startArrow=none;startFill=0;endArrow=classic;endFill=1;jettySize=auto;orthogonalLoop=1;strokeColor=#CE621B;strokeWidth=3;fontFamily=Helvetica;fontSize=14;fontColor=#FFFFFF;spacing=5;exitX=0.75;exitY=0;exitDx=0;exitDy=0;entryX=0;entryY=0.5;entryDx=0;entryDy=0;" edge="1" parent="1" source="1767" target="BpoL6sSreTDUZBfIPBe1-1947">
          <mxGeometry relative="1" as="geometry">
            <mxPoint x="-192" y="145" as="sourcePoint" />
            <mxPoint x="-318" y="131" as="targetPoint" />
          </mxGeometry>
        </mxCell>
        <mxCell id="BpoL6sSreTDUZBfIPBe1-1983" value="" style="edgeStyle=none;rounded=1;jumpStyle=none;html=1;shadow=0;labelBackgroundColor=none;startArrow=none;startFill=0;endArrow=classic;endFill=1;jettySize=auto;orthogonalLoop=1;strokeColor=#CE621B;strokeWidth=3;fontFamily=Helvetica;fontSize=14;fontColor=#FFFFFF;spacing=5;exitX=0.75;exitY=0;exitDx=0;exitDy=0;entryX=0;entryY=0.5;entryDx=0;entryDy=0;" edge="1" parent="1" source="1767" target="BpoL6sSreTDUZBfIPBe1-1945">
          <mxGeometry relative="1" as="geometry">
            <mxPoint x="674" y="-152" as="sourcePoint" />
            <mxPoint x="731" y="-277" as="targetPoint" />
          </mxGeometry>
        </mxCell>
        <mxCell id="BpoL6sSreTDUZBfIPBe1-1984" value="" style="edgeStyle=none;rounded=1;jumpStyle=none;html=1;shadow=0;labelBackgroundColor=none;startArrow=none;startFill=0;endArrow=classic;endFill=1;jettySize=auto;orthogonalLoop=1;strokeColor=#E6410A;strokeWidth=3;fontFamily=Helvetica;fontSize=14;fontColor=#FFFFFF;spacing=5;exitX=0.75;exitY=0;exitDx=0;exitDy=0;entryX=0;entryY=0.5;entryDx=0;entryDy=0;" edge="1" parent="1" source="1767" target="BpoL6sSreTDUZBfIPBe1-1946">
          <mxGeometry relative="1" as="geometry">
            <mxPoint x="-192" y="129" as="sourcePoint" />
            <mxPoint x="-318" y="83" as="targetPoint" />
          </mxGeometry>
        </mxCell>
        <mxCell id="BpoL6sSreTDUZBfIPBe1-1985" value="" style="edgeStyle=none;rounded=1;jumpStyle=none;html=1;shadow=0;labelBackgroundColor=none;startArrow=none;startFill=0;endArrow=classic;endFill=1;jettySize=auto;orthogonalLoop=1;strokeColor=#E6410A;strokeWidth=3;fontFamily=Helvetica;fontSize=14;fontColor=#FFFFFF;spacing=5;exitX=0.75;exitY=0;exitDx=0;exitDy=0;entryX=0;entryY=0.5;entryDx=0;entryDy=0;" edge="1" parent="1" source="1767" target="BpoL6sSreTDUZBfIPBe1-1948">
          <mxGeometry relative="1" as="geometry">
            <mxPoint x="-192" y="129" as="sourcePoint" />
            <mxPoint x="-318" y="83" as="targetPoint" />
          </mxGeometry>
        </mxCell>
        <mxCell id="BpoL6sSreTDUZBfIPBe1-1986" value="" style="edgeStyle=none;rounded=1;jumpStyle=none;html=1;shadow=0;labelBackgroundColor=none;startArrow=none;startFill=0;endArrow=classic;endFill=1;jettySize=auto;orthogonalLoop=1;strokeColor=#E6410A;strokeWidth=3;fontFamily=Helvetica;fontSize=14;fontColor=#FFFFFF;spacing=5;exitX=0;exitY=0.75;exitDx=0;exitDy=0;entryX=1;entryY=0.25;entryDx=0;entryDy=0;" edge="1" parent="1" source="1765" target="BpoL6sSreTDUZBfIPBe1-1936">
          <mxGeometry relative="1" as="geometry">
            <mxPoint x="373" y="-394" as="sourcePoint" />
            <mxPoint x="-10" y="-170" as="targetPoint" />
          </mxGeometry>
        </mxCell>
        <mxCell id="BpoL6sSreTDUZBfIPBe1-1987" value="" style="edgeStyle=none;rounded=1;jumpStyle=none;html=1;shadow=0;labelBackgroundColor=none;startArrow=none;startFill=0;endArrow=classic;endFill=1;jettySize=auto;orthogonalLoop=1;strokeColor=#E6410A;strokeWidth=3;fontFamily=Helvetica;fontSize=14;fontColor=#FFFFFF;spacing=5;exitX=0;exitY=0.75;exitDx=0;exitDy=0;entryX=1;entryY=0.25;entryDx=0;entryDy=0;" edge="1" parent="1" source="1765" target="BpoL6sSreTDUZBfIPBe1-1935">
          <mxGeometry relative="1" as="geometry">
            <mxPoint x="383" y="-384" as="sourcePoint" />
            <mxPoint x="-11" y="-231" as="targetPoint" />
          </mxGeometry>
        </mxCell>
        <mxCell id="BpoL6sSreTDUZBfIPBe1-1988" value="" style="edgeStyle=none;rounded=1;jumpStyle=none;html=1;shadow=0;labelBackgroundColor=none;startArrow=none;startFill=0;endArrow=classic;endFill=1;jettySize=auto;orthogonalLoop=1;strokeColor=#E6410A;strokeWidth=3;fontFamily=Helvetica;fontSize=14;fontColor=#FFFFFF;spacing=5;exitX=0;exitY=0.75;exitDx=0;exitDy=0;entryX=1;entryY=0;entryDx=0;entryDy=0;" edge="1" parent="1" source="1765" target="BpoL6sSreTDUZBfIPBe1-1938">
          <mxGeometry relative="1" as="geometry">
            <mxPoint x="373" y="-394" as="sourcePoint" />
            <mxPoint x="-11" y="-280" as="targetPoint" />
          </mxGeometry>
        </mxCell>
        <mxCell id="BpoL6sSreTDUZBfIPBe1-1989" value="" style="edgeStyle=none;rounded=1;jumpStyle=none;html=1;shadow=0;labelBackgroundColor=none;startArrow=none;startFill=0;endArrow=classic;endFill=1;jettySize=auto;orthogonalLoop=1;strokeColor=#E6410A;strokeWidth=3;fontFamily=Helvetica;fontSize=14;fontColor=#FFFFFF;spacing=5;exitX=0;exitY=0.75;exitDx=0;exitDy=0;entryX=1;entryY=0.25;entryDx=0;entryDy=0;" edge="1" parent="1" source="BpoL6sSreTDUZBfIPBe1-1934" target="BpoL6sSreTDUZBfIPBe1-1936">
          <mxGeometry relative="1" as="geometry">
            <mxPoint x="318" y="-211" as="sourcePoint" />
            <mxPoint x="-10" y="-170" as="targetPoint" />
          </mxGeometry>
        </mxCell>
        <mxCell id="BpoL6sSreTDUZBfIPBe1-1990" value="" style="edgeStyle=none;rounded=1;jumpStyle=none;html=1;shadow=0;labelBackgroundColor=none;startArrow=none;startFill=0;endArrow=classic;endFill=1;jettySize=auto;orthogonalLoop=1;strokeColor=#E6410A;strokeWidth=3;fontFamily=Helvetica;fontSize=14;fontColor=#FFFFFF;spacing=5;exitX=0;exitY=0.75;exitDx=0;exitDy=0;entryX=1;entryY=0.25;entryDx=0;entryDy=0;" edge="1" parent="1" source="BpoL6sSreTDUZBfIPBe1-1934" target="BpoL6sSreTDUZBfIPBe1-1935">
          <mxGeometry relative="1" as="geometry">
            <mxPoint x="318" y="-211" as="sourcePoint" />
            <mxPoint x="-11" y="-231" as="targetPoint" />
          </mxGeometry>
        </mxCell>
        <mxCell id="BpoL6sSreTDUZBfIPBe1-1991" value="" style="edgeStyle=none;rounded=1;jumpStyle=none;html=1;shadow=0;labelBackgroundColor=none;startArrow=none;startFill=0;endArrow=classic;endFill=1;jettySize=auto;orthogonalLoop=1;strokeColor=#E6410A;strokeWidth=3;fontFamily=Helvetica;fontSize=14;fontColor=#FFFFFF;spacing=5;exitX=0;exitY=0.75;exitDx=0;exitDy=0;entryX=1;entryY=0;entryDx=0;entryDy=0;" edge="1" parent="1" source="BpoL6sSreTDUZBfIPBe1-1934" target="BpoL6sSreTDUZBfIPBe1-1938">
          <mxGeometry relative="1" as="geometry">
            <mxPoint x="318" y="-211" as="sourcePoint" />
            <mxPoint x="-11" y="-280" as="targetPoint" />
          </mxGeometry>
        </mxCell>
        <mxCell id="BpoL6sSreTDUZBfIPBe1-1992" value="" style="edgeStyle=none;rounded=1;jumpStyle=none;html=1;shadow=0;labelBackgroundColor=none;startArrow=none;startFill=0;endArrow=classic;endFill=1;jettySize=auto;orthogonalLoop=1;strokeColor=#E6410A;strokeWidth=3;fontFamily=Helvetica;fontSize=14;fontColor=#FFFFFF;spacing=5;exitX=0;exitY=0.25;exitDx=0;exitDy=0;entryX=1;entryY=0.25;entryDx=0;entryDy=0;" edge="1" parent="1" source="1769" target="BpoL6sSreTDUZBfIPBe1-1936">
          <mxGeometry relative="1" as="geometry">
            <mxPoint x="268" y="-76" as="sourcePoint" />
            <mxPoint x="-11" y="-172" as="targetPoint" />
          </mxGeometry>
        </mxCell>
        <mxCell id="BpoL6sSreTDUZBfIPBe1-1993" value="" style="edgeStyle=none;rounded=1;jumpStyle=none;html=1;shadow=0;labelBackgroundColor=none;startArrow=none;startFill=0;endArrow=classic;endFill=1;jettySize=auto;orthogonalLoop=1;strokeColor=#E6410A;strokeWidth=3;fontFamily=Helvetica;fontSize=14;fontColor=#FFFFFF;spacing=5;exitX=0;exitY=0.25;exitDx=0;exitDy=0;entryX=1;entryY=0.25;entryDx=0;entryDy=0;" edge="1" parent="1" source="1769" target="BpoL6sSreTDUZBfIPBe1-1935">
          <mxGeometry relative="1" as="geometry">
            <mxPoint x="268" y="-76" as="sourcePoint" />
            <mxPoint x="-11" y="-231" as="targetPoint" />
          </mxGeometry>
        </mxCell>
        <mxCell id="BpoL6sSreTDUZBfIPBe1-1994" value="" style="edgeStyle=none;rounded=1;jumpStyle=none;html=1;shadow=0;labelBackgroundColor=none;startArrow=none;startFill=0;endArrow=classic;endFill=1;jettySize=auto;orthogonalLoop=1;strokeColor=#E6410A;strokeWidth=3;fontFamily=Helvetica;fontSize=14;fontColor=#FFFFFF;spacing=5;exitX=0;exitY=0.25;exitDx=0;exitDy=0;entryX=1;entryY=0;entryDx=0;entryDy=0;" edge="1" parent="1" source="1769" target="BpoL6sSreTDUZBfIPBe1-1938">
          <mxGeometry relative="1" as="geometry">
            <mxPoint x="268" y="-76" as="sourcePoint" />
            <mxPoint x="-11" y="-280" as="targetPoint" />
          </mxGeometry>
        </mxCell>
        <mxCell id="BpoL6sSreTDUZBfIPBe1-1996" value="потеря данных (К)" style="rounded=1;whiteSpace=wrap;html=1;shadow=0;labelBackgroundColor=none;strokeColor=none;strokeWidth=3;fillColor=#E6410A;fontFamily=Helvetica;fontSize=14;fontColor=#FFFFFF;align=center;spacing=5;fontStyle=0;arcSize=7;perimeterSpacing=2;" vertex="1" parent="1">
          <mxGeometry x="1570" y="-445" width="160" height="40" as="geometry" />
        </mxCell>
        <mxCell id="BpoL6sSreTDUZBfIPBe1-1997" value="искажение данных (З&lt;span style=&quot;background-color: initial;&quot;&gt;)&lt;/span&gt;" style="rounded=1;whiteSpace=wrap;html=1;shadow=0;labelBackgroundColor=none;strokeColor=none;strokeWidth=3;fillColor=#CE621B;fontFamily=Helvetica;fontSize=14;fontColor=#FFFFFF;align=center;spacing=5;fontStyle=0;arcSize=7;perimeterSpacing=2;" vertex="1" parent="1">
          <mxGeometry x="1570" y="-390" width="160" height="40" as="geometry" />
        </mxCell>
        <mxCell id="BpoL6sSreTDUZBfIPBe1-1998" value="некачественные данные (З)" style="rounded=1;whiteSpace=wrap;html=1;shadow=0;labelBackgroundColor=none;strokeColor=none;strokeWidth=3;fillColor=#CE621B;fontFamily=Helvetica;fontSize=14;fontColor=#FFFFFF;align=center;spacing=5;fontStyle=0;arcSize=7;perimeterSpacing=2;" vertex="1" parent="1">
          <mxGeometry x="1570" y="-337" width="160" height="40" as="geometry" />
        </mxCell>
        <mxCell id="BpoL6sSreTDUZBfIPBe1-1999" value="утечка данных (K)" style="rounded=1;whiteSpace=wrap;html=1;shadow=0;labelBackgroundColor=none;strokeColor=none;strokeWidth=3;fillColor=#E6410A;fontFamily=Helvetica;fontSize=14;fontColor=#FFFFFF;align=center;spacing=5;fontStyle=0;arcSize=7;perimeterSpacing=2;" vertex="1" parent="1">
          <mxGeometry x="1570" y="-505" width="160" height="35" as="geometry" />
        </mxCell>
        <mxCell id="BpoL6sSreTDUZBfIPBe1-2000" value="обесценивание данных (Н)" style="rounded=1;whiteSpace=wrap;html=1;shadow=0;labelBackgroundColor=none;strokeColor=none;strokeWidth=3;fillColor=#388C38;fontFamily=Helvetica;fontSize=14;fontColor=#FFFFFF;align=center;spacing=5;fontStyle=0;arcSize=7;perimeterSpacing=2;" vertex="1" parent="1">
          <mxGeometry x="1570" y="-285.25" width="160" height="40" as="geometry" />
        </mxCell>
        <mxCell id="BpoL6sSreTDUZBfIPBe1-2001" value="&lt;p class=&quot;MsoNormal&quot;&gt;&lt;span style=&quot;font-size: 9pt; line-height: 107%; font-family: Helvetica, sans-serif; background: rgb(251, 251, 251);&quot;&gt;Обесцененные данные приводят к повышению&lt;br/&gt;накладных расходов на обслуживание&lt;/span&gt;&lt;br&gt;&lt;/p&gt;" style="text;whiteSpace=wrap;html=1;" vertex="1" parent="1">
          <mxGeometry x="1742.5" y="-297" width="275" height="29.5" as="geometry" />
        </mxCell>
        <mxCell id="BpoL6sSreTDUZBfIPBe1-2002" value="&lt;font face=&quot;Helvetica, sans-serif&quot;&gt;штрафы и финансовые потери из-за раскрытия финансовых данных и коммерческой тайны&lt;/font&gt;" style="text;whiteSpace=wrap;html=1;" vertex="1" parent="1">
          <mxGeometry x="1737.5" y="-510" width="529.5" height="40" as="geometry" />
        </mxCell>
        <mxCell id="BpoL6sSreTDUZBfIPBe1-2003" value="&lt;div&gt;приостановка операционной деятельности, штрафы со стороны регуляторов&lt;/div&gt;&lt;div&gt;&lt;br&gt;&lt;/div&gt;" style="text;whiteSpace=wrap;html=1;" vertex="1" parent="1">
          <mxGeometry x="1742.5" y="-445" width="440" height="50" as="geometry" />
        </mxCell>
        <mxCell id="BpoL6sSreTDUZBfIPBe1-2004" value="затраты на исправление, штрафы со стороны регуляторов, ошибки в принятии бизнес-решений" style="text;whiteSpace=wrap;html=1;" vertex="1" parent="1">
          <mxGeometry x="1742.5" y="-384.5" width="560" height="45" as="geometry" />
        </mxCell>
        <mxCell id="BpoL6sSreTDUZBfIPBe1-2005" value="затраты на исправление, штрафы со стороны регуляторов, ошибки в принятии бизнес-решений" style="text;whiteSpace=wrap;html=1;" vertex="1" parent="1">
          <mxGeometry x="1742.5" y="-335.25" width="440" height="50" as="geometry" />
        </mxCell>
        <mxCell id="BpoL6sSreTDUZBfIPBe1-2006" value="потеря данных (К)" style="rounded=1;whiteSpace=wrap;html=1;shadow=0;labelBackgroundColor=none;strokeColor=none;strokeWidth=3;fillColor=#E6410A;fontFamily=Helvetica;fontSize=14;fontColor=#FFFFFF;align=center;spacing=5;fontStyle=0;arcSize=7;perimeterSpacing=2;" vertex="1" parent="1">
          <mxGeometry x="1740" y="15" width="160" height="40" as="geometry" />
        </mxCell>
        <mxCell id="BpoL6sSreTDUZBfIPBe1-2007" value="искажение данных (К&lt;span style=&quot;background-color: initial;&quot;&gt;)&lt;/span&gt;" style="rounded=1;whiteSpace=wrap;html=1;shadow=0;labelBackgroundColor=none;strokeColor=none;strokeWidth=3;fillColor=#E6410A;fontFamily=Helvetica;fontSize=14;fontColor=#FFFFFF;align=center;spacing=5;fontStyle=0;arcSize=7;perimeterSpacing=2;" vertex="1" parent="1">
          <mxGeometry x="1740" y="70" width="160" height="40" as="geometry" />
        </mxCell>
        <mxCell id="BpoL6sSreTDUZBfIPBe1-2008" value="некачественные данные (К)" style="rounded=1;whiteSpace=wrap;html=1;shadow=0;labelBackgroundColor=none;strokeColor=none;strokeWidth=3;fillColor=#E6410A;fontFamily=Helvetica;fontSize=14;fontColor=#FFFFFF;align=center;spacing=5;fontStyle=0;arcSize=7;perimeterSpacing=2;" vertex="1" parent="1">
          <mxGeometry x="1740" y="123" width="160" height="40" as="geometry" />
        </mxCell>
        <mxCell id="BpoL6sSreTDUZBfIPBe1-2009" value="утечка данных (K)" style="rounded=1;whiteSpace=wrap;html=1;shadow=0;labelBackgroundColor=none;strokeColor=none;strokeWidth=3;fillColor=#E6410A;fontFamily=Helvetica;fontSize=14;fontColor=#FFFFFF;align=center;spacing=5;fontStyle=0;arcSize=7;perimeterSpacing=2;" vertex="1" parent="1">
          <mxGeometry x="1740" y="-45" width="160" height="35" as="geometry" />
        </mxCell>
        <mxCell id="BpoL6sSreTDUZBfIPBe1-2010" value="обесценивание данных (Н)" style="rounded=1;whiteSpace=wrap;html=1;shadow=0;labelBackgroundColor=none;strokeColor=none;strokeWidth=3;fillColor=#388C38;fontFamily=Helvetica;fontSize=14;fontColor=#FFFFFF;align=center;spacing=5;fontStyle=0;arcSize=7;perimeterSpacing=2;" vertex="1" parent="1">
          <mxGeometry x="1740" y="174.75" width="160" height="40" as="geometry" />
        </mxCell>
        <mxCell id="BpoL6sSreTDUZBfIPBe1-2011" value="&lt;p class=&quot;MsoNormal&quot;&gt;&lt;span style=&quot;font-size: 9pt; line-height: 107%; font-family: Helvetica, sans-serif; background: rgb(251, 251, 251);&quot;&gt;Обесцененные данные приводят к повышению&lt;br/&gt;накладных расходов на обслуживание&lt;/span&gt;&lt;br&gt;&lt;/p&gt;" style="text;whiteSpace=wrap;html=1;" vertex="1" parent="1">
          <mxGeometry x="1912.5" y="163" width="275" height="29.5" as="geometry" />
        </mxCell>
        <mxCell id="BpoL6sSreTDUZBfIPBe1-2012" value="&lt;span style=&quot;font-family: Helvetica, sans-serif;&quot;&gt;штрафы,значительные финансовые и репутационные потери&lt;/span&gt;" style="text;whiteSpace=wrap;html=1;" vertex="1" parent="1">
          <mxGeometry x="1912.5" y="-50" width="397.5" height="30" as="geometry" />
        </mxCell>
        <mxCell id="BpoL6sSreTDUZBfIPBe1-2013" value="приостановка операционной деятельности, репутационные издержки" style="text;whiteSpace=wrap;html=1;" vertex="1" parent="1">
          <mxGeometry x="1912.5" y="15" width="440" height="50" as="geometry" />
        </mxCell>
        <mxCell id="BpoL6sSreTDUZBfIPBe1-2014" value="приостановка операционной деятельности, репутационные издержки" style="text;whiteSpace=wrap;html=1;" vertex="1" parent="1">
          <mxGeometry x="1912.5" y="75.5" width="560" height="45" as="geometry" />
        </mxCell>
        <mxCell id="BpoL6sSreTDUZBfIPBe1-2015" value="приостановка операционной деятельности, репутационные издержки" style="text;whiteSpace=wrap;html=1;" vertex="1" parent="1">
          <mxGeometry x="1912.5" y="124.75" width="440" height="50" as="geometry" />
        </mxCell>
        <mxCell id="BpoL6sSreTDUZBfIPBe1-2016" value="неприменимо (-)" style="rounded=1;whiteSpace=wrap;html=1;shadow=0;labelBackgroundColor=none;strokeColor=#82b366;strokeWidth=3;fillColor=#d5e8d4;fontFamily=Helvetica;fontSize=14;align=center;spacing=5;fontStyle=0;arcSize=7;perimeterSpacing=2;" vertex="1" parent="1">
          <mxGeometry x="-638" y="1180" width="150" height="40" as="geometry" />
        </mxCell>
        <mxCell id="BpoL6sSreTDUZBfIPBe1-2017" value="значительный (З)" style="rounded=1;whiteSpace=wrap;html=1;shadow=0;labelBackgroundColor=none;strokeColor=none;strokeWidth=3;fillColor=#CE621B;fontFamily=Helvetica;fontSize=14;fontColor=#FFFFFF;align=center;spacing=5;fontStyle=0;arcSize=7;perimeterSpacing=2;" vertex="1" parent="1">
          <mxGeometry x="-470" y="1180" width="150" height="40" as="geometry" />
        </mxCell>
        <mxCell id="BpoL6sSreTDUZBfIPBe1-2018" value="критический (K)" style="rounded=1;whiteSpace=wrap;html=1;shadow=0;labelBackgroundColor=none;strokeColor=none;strokeWidth=3;fillColor=#E6410A;fontFamily=Helvetica;fontSize=14;fontColor=#FFFFFF;align=center;spacing=5;fontStyle=0;arcSize=7;perimeterSpacing=2;" vertex="1" parent="1">
          <mxGeometry x="-310" y="1180" width="150" height="40" as="geometry" />
        </mxCell>
        <mxCell id="BpoL6sSreTDUZBfIPBe1-2019" value="незначительный (H)" style="rounded=1;whiteSpace=wrap;html=1;shadow=0;labelBackgroundColor=none;strokeColor=none;strokeWidth=3;fillColor=#388C38;fontFamily=Helvetica;fontSize=14;fontColor=#FFFFFF;align=center;spacing=5;fontStyle=0;arcSize=7;perimeterSpacing=2;" vertex="1" parent="1">
          <mxGeometry x="-150" y="1180" width="150" height="40" as="geometry" />
        </mxCell>
        <mxCell id="BpoL6sSreTDUZBfIPBe1-2020" value="" style="edgeStyle=none;rounded=1;jumpStyle=none;html=1;shadow=0;labelBackgroundColor=none;startArrow=none;startFill=0;endArrow=classic;endFill=1;jettySize=auto;orthogonalLoop=1;strokeColor=#388C38;strokeWidth=3;fontFamily=Helvetica;fontSize=14;fontColor=#FFFFFF;spacing=5;entryX=0;entryY=1;entryDx=0;entryDy=0;exitX=1;exitY=1;exitDx=0;exitDy=0;" edge="1" parent="1" source="BpoL6sSreTDUZBfIPBe1-1933" target="BpoL6sSreTDUZBfIPBe1-2010">
          <mxGeometry relative="1" as="geometry">
            <mxPoint x="240" y="-42" as="sourcePoint" />
            <mxPoint x="291" y="-93" as="targetPoint" />
          </mxGeometry>
        </mxCell>
        <mxCell id="BpoL6sSreTDUZBfIPBe1-2021" value="" style="edgeStyle=none;rounded=1;jumpStyle=none;html=1;shadow=0;labelBackgroundColor=none;startArrow=none;startFill=0;endArrow=classic;endFill=1;jettySize=auto;orthogonalLoop=1;strokeColor=#388C38;strokeWidth=3;fontFamily=Helvetica;fontSize=14;fontColor=#FFFFFF;spacing=5;entryX=0;entryY=1;entryDx=0;entryDy=0;exitX=0;exitY=0;exitDx=0;exitDy=0;" edge="1" parent="1" source="BpoL6sSreTDUZBfIPBe1-1956" target="BpoL6sSreTDUZBfIPBe1-2000">
          <mxGeometry relative="1" as="geometry">
            <mxPoint x="690" y="-142" as="sourcePoint" />
            <mxPoint x="741" y="-193" as="targetPoint" />
          </mxGeometry>
        </mxCell>
        <mxCell id="BpoL6sSreTDUZBfIPBe1-2022" value="" style="edgeStyle=none;rounded=1;jumpStyle=none;html=1;shadow=0;labelBackgroundColor=none;startArrow=none;startFill=0;endArrow=classic;endFill=1;jettySize=auto;orthogonalLoop=1;strokeColor=#CE621B;strokeWidth=3;fontFamily=Helvetica;fontSize=14;fontColor=#FFFFFF;spacing=5;exitX=0;exitY=0;exitDx=0;exitDy=0;entryX=0;entryY=0.75;entryDx=0;entryDy=0;" edge="1" parent="1" source="BpoL6sSreTDUZBfIPBe1-1956" target="BpoL6sSreTDUZBfIPBe1-1998">
          <mxGeometry relative="1" as="geometry">
            <mxPoint x="674" y="-152" as="sourcePoint" />
            <mxPoint x="731" y="-277" as="targetPoint" />
          </mxGeometry>
        </mxCell>
        <mxCell id="BpoL6sSreTDUZBfIPBe1-2023" value="" style="edgeStyle=none;rounded=1;jumpStyle=none;html=1;shadow=0;labelBackgroundColor=none;startArrow=none;startFill=0;endArrow=classic;endFill=1;jettySize=auto;orthogonalLoop=1;strokeColor=#CE621B;strokeWidth=3;fontFamily=Helvetica;fontSize=14;fontColor=#FFFFFF;spacing=5;entryX=0;entryY=0.75;entryDx=0;entryDy=0;" edge="1" parent="1" target="BpoL6sSreTDUZBfIPBe1-1997">
          <mxGeometry relative="1" as="geometry">
            <mxPoint x="1480" y="-160" as="sourcePoint" />
            <mxPoint x="1578" y="-296" as="targetPoint" />
          </mxGeometry>
        </mxCell>
        <mxCell id="BpoL6sSreTDUZBfIPBe1-2024" value="" style="edgeStyle=none;rounded=1;jumpStyle=none;html=1;shadow=0;labelBackgroundColor=none;startArrow=none;startFill=0;endArrow=classic;endFill=1;jettySize=auto;orthogonalLoop=1;strokeColor=#E6410A;strokeWidth=3;fontFamily=Helvetica;fontSize=14;fontColor=#FFFFFF;spacing=5;exitX=0;exitY=0;exitDx=0;exitDy=0;entryX=0;entryY=0.75;entryDx=0;entryDy=0;" edge="1" parent="1" source="BpoL6sSreTDUZBfIPBe1-1956" target="BpoL6sSreTDUZBfIPBe1-1999">
          <mxGeometry relative="1" as="geometry">
            <mxPoint x="674" y="-152" as="sourcePoint" />
            <mxPoint x="731" y="-447" as="targetPoint" />
          </mxGeometry>
        </mxCell>
        <mxCell id="BpoL6sSreTDUZBfIPBe1-2025" value="" style="edgeStyle=none;rounded=1;jumpStyle=none;html=1;shadow=0;labelBackgroundColor=none;startArrow=none;startFill=0;endArrow=classic;endFill=1;jettySize=auto;orthogonalLoop=1;strokeColor=#E6410A;strokeWidth=3;fontFamily=Helvetica;fontSize=14;fontColor=#FFFFFF;spacing=5;exitX=0;exitY=0;exitDx=0;exitDy=0;entryX=0;entryY=1;entryDx=0;entryDy=0;" edge="1" parent="1" source="BpoL6sSreTDUZBfIPBe1-1956" target="BpoL6sSreTDUZBfIPBe1-1996">
          <mxGeometry relative="1" as="geometry">
            <mxPoint x="1488" y="-152" as="sourcePoint" />
            <mxPoint x="1578" y="-468" as="targetPoint" />
          </mxGeometry>
        </mxCell>
        <mxCell id="BpoL6sSreTDUZBfIPBe1-2026" value="" style="edgeStyle=none;rounded=1;jumpStyle=none;html=1;shadow=0;labelBackgroundColor=none;startArrow=none;startFill=0;endArrow=classic;endFill=1;jettySize=auto;orthogonalLoop=1;strokeColor=#E6410A;strokeWidth=3;fontFamily=Helvetica;fontSize=14;fontColor=#FFFFFF;spacing=5;entryX=0;entryY=0.5;entryDx=0;entryDy=0;exitX=1;exitY=0.25;exitDx=0;exitDy=0;" edge="1" parent="1" source="BpoL6sSreTDUZBfIPBe1-1933" target="BpoL6sSreTDUZBfIPBe1-2009">
          <mxGeometry relative="1" as="geometry">
            <mxPoint x="1620" y="-27" as="sourcePoint" />
            <mxPoint x="1138" y="-358" as="targetPoint" />
          </mxGeometry>
        </mxCell>
        <mxCell id="BpoL6sSreTDUZBfIPBe1-2027" value="" style="edgeStyle=none;rounded=1;jumpStyle=none;html=1;shadow=0;labelBackgroundColor=none;startArrow=none;startFill=0;endArrow=classic;endFill=1;jettySize=auto;orthogonalLoop=1;strokeColor=#E6410A;strokeWidth=3;fontFamily=Helvetica;fontSize=14;fontColor=#FFFFFF;spacing=5;entryX=0;entryY=0.5;entryDx=0;entryDy=0;exitX=1;exitY=0.25;exitDx=0;exitDy=0;" edge="1" parent="1" source="BpoL6sSreTDUZBfIPBe1-1933" target="BpoL6sSreTDUZBfIPBe1-2006">
          <mxGeometry relative="1" as="geometry">
            <mxPoint x="1642" y="-20" as="sourcePoint" />
            <mxPoint x="1748" y="-17" as="targetPoint" />
          </mxGeometry>
        </mxCell>
        <mxCell id="BpoL6sSreTDUZBfIPBe1-2028" value="" style="edgeStyle=none;rounded=1;jumpStyle=none;html=1;shadow=0;labelBackgroundColor=none;startArrow=none;startFill=0;endArrow=classic;endFill=1;jettySize=auto;orthogonalLoop=1;strokeColor=#E6410A;strokeWidth=3;fontFamily=Helvetica;fontSize=14;fontColor=#FFFFFF;spacing=5;entryX=0;entryY=0.5;entryDx=0;entryDy=0;exitX=1;exitY=0.25;exitDx=0;exitDy=0;" edge="1" parent="1" source="BpoL6sSreTDUZBfIPBe1-1933" target="BpoL6sSreTDUZBfIPBe1-2007">
          <mxGeometry relative="1" as="geometry">
            <mxPoint x="1642" y="-20" as="sourcePoint" />
            <mxPoint x="1748" y="45" as="targetPoint" />
          </mxGeometry>
        </mxCell>
        <mxCell id="BpoL6sSreTDUZBfIPBe1-2029" value="" style="edgeStyle=none;rounded=1;jumpStyle=none;html=1;shadow=0;labelBackgroundColor=none;startArrow=none;startFill=0;endArrow=classic;endFill=1;jettySize=auto;orthogonalLoop=1;strokeColor=#E6410A;strokeWidth=3;fontFamily=Helvetica;fontSize=14;fontColor=#FFFFFF;spacing=5;entryX=0;entryY=0.5;entryDx=0;entryDy=0;exitX=1;exitY=0.5;exitDx=0;exitDy=0;" edge="1" parent="1" source="BpoL6sSreTDUZBfIPBe1-1933" target="BpoL6sSreTDUZBfIPBe1-2008">
          <mxGeometry relative="1" as="geometry">
            <mxPoint x="1642" y="-20" as="sourcePoint" />
            <mxPoint x="1748" y="100" as="targetPoint" />
          </mxGeometry>
        </mxCell>
      </root>
    </mxGraphModel>
  </diagram>
</mxfile>
